<?xml version="1.0" encoding="utf-8"?>
<!-- Generator: Adobe Illustrator 19.0.0, SVG Export Plug-In . SVG Version: 6.00 Build 0)  -->
<svg version="1.1" id="Layer_1" xmlns="http://www.w3.org/2000/svg" xmlns:xlink="http://www.w3.org/1999/xlink" x="0px" y="0px"
	 viewBox="0 0 112.9 58" style="enable-background:new 0 0 112.9 58;" xml:space="preserve">
<style type="text/css">
	.st0{fill-rule:evenodd;clip-rule:evenodd;fill:#BE2026;}
	.st1{fill-rule:evenodd;clip-rule:evenodd;fill:#009848;}
	.st2{fill-rule:evenodd;clip-rule:evenodd;fill:#54575C;}
	.st3{clip-path:url(#SVGID_2_);fill-rule:evenodd;clip-rule:evenodd;fill:#BE2026;}
	.st4{clip-path:url(#SVGID_4_);fill-rule:evenodd;clip-rule:evenodd;fill:#BE2026;}
	.st5{clip-path:url(#SVGID_6_);fill-rule:evenodd;clip-rule:evenodd;fill:#BE2026;}
	.st6{fill:#54575C;}
</style>
<g>
	<path class="st0" d="M105.3,21.3c3-0.1,7.6-1.1,7.6-1.1s-3.6-2.7-9.6-2.9c-7.9-0.2-16.6,0.3-24.6,0.4l5.2-0.7v-1.7
		c0-0.4,0.3-0.7,0.7-0.7h3.2c0.4,0,0.7,0.3,0.7,0.7v1.5c3.7-0.1,8.4-0.1,8.4-0.1l8.3-0.4C103.4,5.7,96.9,1.3,88,0.8l-0.6,1.9
		c0,0,3.2-0.4,6.5,1.2C97.1,5.5,99,8.8,99,8.8l-0.6,0.4C95,4.3,90.5,2.9,85.5,3c0,0,0-1.2-0.7-2.4c-0.2-0.3-0.4-0.5-0.6-0.6
		c-0.3,0-0.6,0-0.9,0c-0.1,0-0.3,0-0.4,0c-0.3,0.2-0.5,0.5-0.5,0.9c-0.1,1.2,0.1,2.5-1.2,2.9c-1.3,0.4-1.9,0.2-2.7-0.4
		C77.8,2.7,77.1,2,77.1,2l-1.8,1.2c0,0,0.8,1.4,0.8,2.1c0,0.8-1.2,2.1-2.1,2.1c-0.8,0-2.7-0.5-2.7-0.5l-0.9,2c0,0,1.7,0.5,1.3,2.5
		c-0.4,2-1.2,1.9-1.5,2c-0.3,0.1-1.6-0.1-1.6-0.1v0l0.1,2.3v0c0,0,2,0.1,2.1,0.3c0.1,0.2-0.2,2.4-0.3,3.6c4.8,0,16.6-0.9,23.3,0.1
		C99.3,20.6,98.1,21.5,105.3,21.3"/>
	<rect x="42.2" y="22.1" class="st1" width="6.2" height="23.1"/>
	<path class="st1" d="M45.4,13.9c1.7,0,3,1.3,3,3c0,1.7-1.3,3-3,3c-1.7,0-3-1.3-3-3C42.4,15.2,43.7,13.9,45.4,13.9"/>
	<path class="st1" d="M87.1,26.5c2.1-2.8,5.5-4.6,9.2-4.6c5.8,0,9.2,3.2,10.9,7.1c1.2,2.6,1,3.4,1,6.1v17.6h-6.2
		c0-5.3,0-10.6,0-15.8c0-4.2,0.2-8.8-5.8-8.8c-1.4,0-2.8,0.5-3.8,1.3c-2.5,1.9-1.9,3.6-1.9,6.4v16.9c-2.3,0-4.5,0-6.8,0V35.5
		c0-3.9-0.6-7.4-5.8-7.4c-4.4,0-6.1,3.2-6.1,7.1v1.5v6.5v5.6v3.9H66V35.2c0-3.1-0.2-4,1.3-6.9c1.9-3.6,5.1-6.4,10.6-6.4
		C81.7,21.9,85,23.7,87.1,26.5"/>
	<polygon class="st0" points="38.3,46.6 65.5,46.6 65.5,52.8 41.5,52.8 	"/>
	<path class="st0" d="M72.6,21.4l0.7,0.9C71,23,68,25.5,66.8,28.2c0,0-5.9,0-6.7,0c-0.8,0-2.8,0.6-2.6,2.9c0.3,3.9,5.5,3.2,8,3.1
		l0,6.3c-7.7,0.7-15.2-1.5-14.8-10.5c0.2-5.5,5.6-8.3,10.5-8.4C64.8,21.4,72.6,21.4,72.6,21.4"/>
	<path class="st0" d="M72.3,34.6c3.7,1.5,6.4,5,6.4,9.1c0,4.1-2.6,7.6-6.4,9.1V34.6z"/>
	<rect x="101.1" y="56.5" class="st2" width="6.7" height="0.3"/>
	<g>
		<defs>
			<path id="SVGID_1_" d="M33.9,46.6c-3.2-6.3-6.6-13.1-9.7-19.4c3-1.6,5.8-1.5,8.2,0.8l0.4,0.3l12.6,24.5H12.3l3.3-6.2H33.9z"/>
		</defs>
		<use xlink:href="#SVGID_1_"  style="overflow:visible;fill-rule:evenodd;clip-rule:evenodd;fill:#BE2026;"/>
		<clipPath id="SVGID_2_">
			<use xlink:href="#SVGID_1_"  style="overflow:visible;"/>
		</clipPath>
		<polyline class="st3" points="12.3,52.8 12.3,52.2 45.4,53.3 45.3,53.8 		"/>
		<polyline class="st3" points="12.3,52.3 12.3,52.1 45.4,53.2 45.4,53.3 		"/>
		<polyline class="st3" points="12.3,52.2 12.3,52 45.4,53 45.4,53.2 		"/>
		<polyline class="st3" points="12.3,52.1 12.3,51.9 45.4,52.9 45.4,53.1 		"/>
		<polyline class="st3" points="12.3,52 12.3,51.8 45.4,52.8 45.4,53 		"/>
		<polyline class="st3" points="12.3,51.9 12.3,51.7 45.4,52.7 45.4,52.9 		"/>
		<polyline class="st3" points="12.3,51.8 12.3,51.6 45.4,52.6 45.4,52.8 		"/>
		<polyline class="st3" points="12.3,51.7 12.3,51.5 45.4,52.5 45.4,52.7 		"/>
		<polyline class="st3" points="12.3,51.6 12.3,51.4 45.4,52.4 45.4,52.6 		"/>
		<polyline class="st3" points="12.3,51.5 12.3,51.3 45.4,52.3 45.4,52.5 		"/>
		<polyline class="st3" points="12.3,51.4 12.3,51.2 45.4,52.2 45.4,52.4 		"/>
		<polyline class="st3" points="12.3,51.3 12.3,51.1 45.4,52.1 45.4,52.3 		"/>
		<polyline class="st3" points="12.3,51.2 12.3,51 45.4,52 45.4,52.2 		"/>
		<polyline class="st3" points="12.3,51 12.3,50.9 45.4,51.9 45.4,52.1 		"/>
		<polyline class="st3" points="12.3,50.9 12.3,50.8 45.4,51.8 45.4,52 		"/>
		<polyline class="st3" points="12.3,50.8 12.3,50.7 45.4,51.7 45.4,51.8 		"/>
		<polyline class="st3" points="12.3,50.7 12.3,50.6 45.4,51.6 45.4,51.7 		"/>
		<polyline class="st3" points="12.3,50.6 12.3,50.5 45.4,51.5 45.4,51.6 		"/>
		<polyline class="st3" points="12.3,50.5 12.3,50.4 45.4,51.4 45.4,51.5 		"/>
		<polyline class="st3" points="12.3,50.4 12.3,50.3 45.4,51.3 45.4,51.4 		"/>
		<polyline class="st3" points="12.3,50.3 12.3,50.2 45.4,51.2 45.4,51.3 		"/>
		<polyline class="st3" points="12.3,50.2 12.3,50.1 45.4,51.1 45.4,51.2 		"/>
		<polyline class="st3" points="12.3,50.1 12.3,50 45.4,51 45.4,51.1 		"/>
		<polyline class="st3" points="12.3,50 12.3,49.8 45.4,50.9 45.4,51 		"/>
		<polyline class="st3" points="12.3,49.9 12.4,49.7 45.4,50.8 45.4,50.9 		"/>
		<polyline class="st3" points="12.4,49.8 12.4,49.6 45.4,50.6 45.4,50.8 		"/>
		<polyline class="st3" points="12.4,49.7 12.4,49.5 45.4,50.5 45.4,50.7 		"/>
		<polyline class="st3" points="12.4,49.6 12.4,49.4 45.4,50.4 45.4,50.6 		"/>
		<polyline class="st3" points="12.4,49.5 12.4,49.3 45.5,50.3 45.4,50.5 		"/>
		<polyline class="st3" points="12.4,49.4 12.4,49.2 45.5,50.2 45.5,50.4 		"/>
		<polyline class="st3" points="12.4,49.3 12.4,49.1 45.5,50.1 45.5,50.3 		"/>
		<polyline class="st3" points="12.4,49.2 12.4,49 45.5,50 45.5,50.2 		"/>
		<polyline class="st3" points="12.4,49.1 12.4,48.9 45.5,49.9 45.5,50.1 		"/>
		<polyline class="st3" points="12.4,49 12.4,48.8 45.5,49.8 45.5,50 		"/>
		<polyline class="st3" points="12.4,48.9 12.4,48.7 45.5,49.7 45.5,49.9 		"/>
		<polyline class="st3" points="12.4,48.8 12.4,48.6 45.5,49.6 45.5,49.8 		"/>
		<polyline class="st3" points="12.4,48.6 12.4,48.5 45.5,49.5 45.5,49.7 		"/>
		<polyline class="st3" points="12.4,48.5 12.4,48.4 45.5,49.4 45.5,49.5 		"/>
		<polyline class="st3" points="12.4,48.4 12.4,48.3 45.5,49.3 45.5,49.4 		"/>
		<polyline class="st3" points="12.4,48.3 12.4,48.2 45.5,49.2 45.5,49.3 		"/>
		<polyline class="st3" points="12.4,48.2 12.4,48.1 45.5,49.1 45.5,49.2 		"/>
		<polyline class="st3" points="12.4,48.1 12.4,48 45.5,49 45.5,49.1 		"/>
		<polyline class="st3" points="12.4,48 12.4,47.9 45.5,48.9 45.5,49 		"/>
		<polyline class="st3" points="12.4,47.9 12.4,47.8 45.5,48.8 45.5,48.9 		"/>
		<polyline class="st3" points="12.4,47.8 12.4,47.7 45.5,48.7 45.5,48.8 		"/>
		<polyline class="st3" points="12.4,47.7 12.4,47.6 45.5,48.6 45.5,48.7 		"/>
		<polyline class="st3" points="12.4,47.6 12.4,47.4 45.5,48.5 45.5,48.6 		"/>
		<polyline class="st3" points="12.4,47.5 12.4,47.3 45.5,48.3 45.5,48.5 		"/>
		<polyline class="st3" points="12.4,47.4 12.4,47.2 45.5,48.2 45.5,48.4 		"/>
		<polyline class="st3" points="12.4,47.3 12.4,47.1 45.5,48.1 45.5,48.3 		"/>
		<polyline class="st3" points="12.4,47.2 12.4,47 45.5,48 45.5,48.2 		"/>
		<polyline class="st3" points="12.4,47.1 12.4,46.9 45.5,47.9 45.5,48.1 		"/>
		<polyline class="st3" points="12.4,47 12.4,46.8 45.5,47.8 45.5,48 		"/>
		<polyline class="st3" points="12.4,46.9 12.4,46.7 45.5,47.7 45.5,47.9 		"/>
		<polyline class="st3" points="12.4,46.8 12.4,46.6 45.5,47.6 45.5,47.8 		"/>
		<polyline class="st3" points="12.4,46.7 12.4,46.5 45.5,47.5 45.5,47.7 		"/>
		<polyline class="st3" points="12.4,46.6 12.5,46.4 45.5,47.4 45.5,47.6 		"/>
		<polyline class="st3" points="12.5,46.5 12.5,46.3 45.5,47.3 45.5,47.5 		"/>
		<polyline class="st3" points="12.5,46.3 12.5,46.2 45.5,47.2 45.5,47.4 		"/>
		<polyline class="st3" points="12.5,46.2 12.5,46.1 45.6,47.1 45.5,47.3 		"/>
		<polyline class="st3" points="12.5,46.1 12.5,46 45.6,47 45.5,47.1 		"/>
		<polyline class="st3" points="12.5,46 12.5,45.9 45.6,46.9 45.6,47 		"/>
		<polyline class="st3" points="12.5,45.9 12.5,45.8 45.6,46.8 45.6,46.9 		"/>
		<polyline class="st3" points="12.5,45.8 12.5,45.7 45.6,46.7 45.6,46.8 		"/>
		<polyline class="st3" points="12.5,45.7 12.5,45.6 45.6,46.6 45.6,46.7 		"/>
		<polyline class="st3" points="12.5,45.6 12.5,45.5 45.6,46.5 45.6,46.6 		"/>
		<polyline class="st3" points="12.5,45.5 12.5,45.4 45.6,46.4 45.6,46.5 		"/>
		<polyline class="st3" points="12.5,45.4 12.5,45.3 45.6,46.3 45.6,46.4 		"/>
		<polyline class="st3" points="12.5,45.3 12.5,45.1 45.6,46.2 45.6,46.3 		"/>
		<polyline class="st3" points="12.5,45.2 12.5,45 45.6,46.1 45.6,46.2 		"/>
		<polyline class="st3" points="12.5,45.1 12.5,44.9 45.6,45.9 45.6,46.1 		"/>
		<polyline class="st3" points="12.5,45 12.5,44.8 45.6,45.8 45.6,46 		"/>
		<polyline class="st3" points="12.5,44.9 12.5,44.7 45.6,45.7 45.6,45.9 		"/>
		<polyline class="st3" points="12.5,44.8 12.5,44.6 45.6,45.6 45.6,45.8 		"/>
		<polyline class="st3" points="12.5,44.7 12.5,44.5 45.6,45.5 45.6,45.7 		"/>
		<polyline class="st3" points="12.5,44.6 12.5,44.4 45.6,45.4 45.6,45.6 		"/>
		<polyline class="st3" points="12.5,44.5 12.5,44.3 45.6,45.3 45.6,45.5 		"/>
		<polyline class="st3" points="12.5,44.4 12.5,44.2 45.6,45.2 45.6,45.4 		"/>
		<polyline class="st3" points="12.5,44.3 12.5,44.1 45.6,45.1 45.6,45.3 		"/>
		<polyline class="st3" points="12.5,44.2 12.5,44 45.6,45 45.6,45.2 		"/>
		<polyline class="st3" points="12.5,44.1 12.5,43.9 45.6,44.9 45.6,45.1 		"/>
		<polyline class="st3" points="12.5,43.9 12.5,43.8 45.6,44.8 45.6,45 		"/>
		<polyline class="st3" points="12.5,43.8 12.5,43.7 45.6,44.7 45.6,44.9 		"/>
		<polyline class="st3" points="12.5,43.7 12.5,43.6 45.6,44.6 45.6,44.7 		"/>
		<polyline class="st3" points="12.5,43.6 12.5,43.5 45.6,44.5 45.6,44.6 		"/>
		<polyline class="st3" points="12.5,43.5 12.5,43.4 45.6,44.4 45.6,44.5 		"/>
		<polyline class="st3" points="12.5,43.4 12.5,43.3 45.6,44.3 45.6,44.4 		"/>
		<polyline class="st3" points="12.5,43.3 12.6,43.2 45.6,44.2 45.6,44.3 		"/>
		<polyline class="st3" points="12.6,43.2 12.6,43.1 45.6,44.1 45.6,44.2 		"/>
		<polyline class="st3" points="12.6,43.1 12.6,43 45.6,44 45.6,44.1 		"/>
		<polyline class="st3" points="12.6,43 12.6,42.9 45.7,43.9 45.6,44 		"/>
		<polyline class="st3" points="12.6,42.9 12.6,42.7 45.7,43.8 45.6,43.9 		"/>
		<polyline class="st3" points="12.6,42.8 12.6,42.6 45.7,43.7 45.7,43.8 		"/>
		<polyline class="st3" points="12.6,42.7 12.6,42.5 45.7,43.5 45.7,43.7 		"/>
		<polyline class="st3" points="12.6,42.6 12.6,42.4 45.7,43.4 45.7,43.6 		"/>
		<polyline class="st3" points="12.6,42.5 12.6,42.3 45.7,43.3 45.7,43.5 		"/>
		<polyline class="st3" points="12.6,42.4 12.6,42.2 45.7,43.2 45.7,43.4 		"/>
		<polyline class="st3" points="12.6,42.3 12.6,42.1 45.7,43.1 45.7,43.3 		"/>
		<polyline class="st3" points="12.6,42.2 12.6,42 45.7,43 45.7,43.2 		"/>
		<polyline class="st3" points="12.6,42.1 12.6,41.9 45.7,42.9 45.7,43.1 		"/>
		<polyline class="st3" points="12.6,42 12.6,41.8 45.7,42.8 45.7,43 		"/>
		<polyline class="st3" points="12.6,41.9 12.6,41.7 45.7,42.7 45.7,42.9 		"/>
		<polyline class="st3" points="12.6,41.8 12.6,41.6 45.7,42.6 45.7,42.8 		"/>
		<polyline class="st3" points="12.6,41.7 12.6,41.5 45.7,42.5 45.7,42.7 		"/>
		<polyline class="st3" points="12.6,41.5 12.6,41.4 45.7,42.4 45.7,42.6 		"/>
		<polyline class="st3" points="12.6,41.4 12.6,41.3 45.7,42.3 45.7,42.4 		"/>
		<polyline class="st3" points="12.6,41.3 12.6,41.2 45.7,42.2 45.7,42.3 		"/>
		<polyline class="st3" points="12.6,41.2 12.6,41.1 45.7,42.1 45.7,42.2 		"/>
		<polyline class="st3" points="12.6,41.1 12.6,41 45.7,42 45.7,42.1 		"/>
		<polyline class="st3" points="12.6,41 12.6,40.9 45.7,41.9 45.7,42 		"/>
		<polyline class="st3" points="12.6,40.9 12.6,40.8 45.7,41.8 45.7,41.9 		"/>
		<polyline class="st3" points="12.6,40.8 12.6,40.7 45.7,41.7 45.7,41.8 		"/>
		<polyline class="st3" points="12.6,40.7 12.6,40.6 45.7,41.6 45.7,41.7 		"/>
		<polyline class="st3" points="12.6,40.6 12.6,40.5 45.7,41.5 45.7,41.6 		"/>
		<polyline class="st3" points="12.6,40.5 12.6,40.3 45.7,41.4 45.7,41.5 		"/>
		<polyline class="st3" points="12.6,40.4 12.6,40.2 45.7,41.2 45.7,41.4 		"/>
		<polyline class="st3" points="12.6,40.3 12.6,40.1 45.7,41.1 45.7,41.3 		"/>
		<polyline class="st3" points="12.6,40.2 12.6,40 45.7,41 45.7,41.2 		"/>
		<polyline class="st3" points="12.6,40.1 12.7,39.9 45.7,40.9 45.7,41.1 		"/>
		<polyline class="st3" points="12.6,40 12.7,39.8 45.7,40.8 45.7,41 		"/>
		<polyline class="st3" points="12.7,39.9 12.7,39.7 45.7,40.7 45.7,40.9 		"/>
		<polyline class="st3" points="12.7,39.8 12.7,39.6 45.7,40.6 45.7,40.8 		"/>
		<polyline class="st3" points="12.7,39.7 12.7,39.5 45.8,40.5 45.7,40.7 		"/>
		<polyline class="st3" points="12.7,39.6 12.7,39.4 45.8,40.4 45.7,40.6 		"/>
		<polyline class="st3" points="12.7,39.5 12.7,39.3 45.8,40.3 45.8,40.5 		"/>
		<polyline class="st3" points="12.7,39.4 12.7,39.2 45.8,40.2 45.8,40.4 		"/>
		<polyline class="st3" points="12.7,39.2 12.7,39.1 45.8,40.1 45.8,40.3 		"/>
		<polyline class="st3" points="12.7,39.1 12.7,39 45.8,40 45.8,40.2 		"/>
		<polyline class="st3" points="12.7,39 12.7,38.9 45.8,39.9 45.8,40 		"/>
		<polyline class="st3" points="12.7,38.9 12.7,38.8 45.8,39.8 45.8,39.9 		"/>
		<polyline class="st3" points="12.7,38.8 12.7,38.7 45.8,39.7 45.8,39.8 		"/>
		<polyline class="st3" points="12.7,38.7 12.7,38.6 45.8,39.6 45.8,39.7 		"/>
		<polyline class="st3" points="12.7,38.6 12.7,38.5 45.8,39.5 45.8,39.6 		"/>
		<polyline class="st3" points="12.7,38.5 12.7,38.4 45.8,39.4 45.8,39.5 		"/>
		<polyline class="st3" points="12.7,38.4 12.7,38.3 45.8,39.3 45.8,39.4 		"/>
		<polyline class="st3" points="12.7,38.3 12.7,38.2 45.8,39.2 45.8,39.3 		"/>
		<polyline class="st3" points="12.7,38.2 12.7,38 45.8,39.1 45.8,39.2 		"/>
		<polyline class="st3" points="12.7,38.1 12.7,37.9 45.8,39 45.8,39.1 		"/>
		<polyline class="st3" points="12.7,38 12.7,37.8 45.8,38.8 45.8,39 		"/>
		<polyline class="st3" points="12.7,37.9 12.7,37.7 45.8,38.7 45.8,38.9 		"/>
		<polyline class="st3" points="12.7,37.8 12.7,37.6 45.8,38.6 45.8,38.8 		"/>
		<polyline class="st3" points="12.7,37.7 12.7,37.5 45.8,38.5 45.8,38.7 		"/>
		<polyline class="st3" points="12.7,37.6 12.7,37.4 45.8,38.4 45.8,38.6 		"/>
		<polyline class="st3" points="12.7,37.5 12.7,37.3 45.8,38.3 45.8,38.5 		"/>
		<polyline class="st3" points="12.7,37.4 12.7,37.2 45.8,38.2 45.8,38.4 		"/>
		<polyline class="st3" points="12.7,37.3 12.7,37.1 45.8,38.1 45.8,38.3 		"/>
		<polyline class="st3" points="12.7,37.2 12.7,37 45.8,38 45.8,38.2 		"/>
		<polyline class="st3" points="12.7,37.1 12.7,36.9 45.8,37.9 45.8,38.1 		"/>
		<polyline class="st3" points="12.7,37 12.7,36.8 45.8,37.8 45.8,38 		"/>
		<polyline class="st3" points="12.7,36.8 12.7,36.7 45.8,37.7 45.8,37.9 		"/>
		<polyline class="st3" points="12.7,36.7 12.8,36.6 45.8,37.6 45.8,37.8 		"/>
		<polyline class="st3" points="12.8,36.6 12.8,36.5 45.8,37.5 45.8,37.6 		"/>
		<polyline class="st3" points="12.8,36.5 12.8,36.4 45.8,37.4 45.8,37.5 		"/>
		<polyline class="st3" points="12.8,36.4 12.8,36.3 45.9,37.3 45.8,37.4 		"/>
		<polyline class="st3" points="12.8,36.3 12.8,36.2 45.9,37.2 45.8,37.3 		"/>
		<polyline class="st3" points="12.8,36.2 12.8,36.1 45.9,37.1 45.9,37.2 		"/>
		<polyline class="st3" points="12.8,36.1 12.8,36 45.9,37 45.9,37.1 		"/>
		<polyline class="st3" points="12.8,36 12.8,35.9 45.9,36.9 45.9,37 		"/>
		<polyline class="st3" points="12.8,35.9 12.8,35.8 45.9,36.8 45.9,36.9 		"/>
		<polyline class="st3" points="12.8,35.8 12.8,35.6 45.9,36.7 45.9,36.8 		"/>
		<polyline class="st3" points="12.8,35.7 12.8,35.5 45.9,36.6 45.9,36.7 		"/>
		<polyline class="st3" points="12.8,35.6 12.8,35.4 45.9,36.4 45.9,36.6 		"/>
		<polyline class="st3" points="12.8,35.5 12.8,35.3 45.9,36.3 45.9,36.5 		"/>
		<polyline class="st3" points="12.8,35.4 12.8,35.2 45.9,36.2 45.9,36.4 		"/>
		<polyline class="st3" points="12.8,35.3 12.8,35.1 45.9,36.1 45.9,36.3 		"/>
		<polyline class="st3" points="12.8,35.2 12.8,35 45.9,36 45.9,36.2 		"/>
		<polyline class="st3" points="12.8,35.1 12.8,34.9 45.9,35.9 45.9,36.1 		"/>
		<polyline class="st3" points="12.8,35 12.8,34.8 45.9,35.8 45.9,36 		"/>
		<polyline class="st3" points="12.8,34.9 12.8,34.7 45.9,35.7 45.9,35.9 		"/>
		<polyline class="st3" points="12.8,34.8 12.8,34.6 45.9,35.6 45.9,35.8 		"/>
		<polyline class="st3" points="12.8,34.7 12.8,34.5 45.9,35.5 45.9,35.7 		"/>
		<polyline class="st3" points="12.8,34.6 12.8,34.4 45.9,35.4 45.9,35.6 		"/>
		<polyline class="st3" points="12.8,34.4 12.8,34.3 45.9,35.3 45.9,35.5 		"/>
		<polyline class="st3" points="12.8,34.3 12.8,34.2 45.9,35.2 45.9,35.4 		"/>
		<polyline class="st3" points="12.8,34.2 12.8,34.1 45.9,35.1 45.9,35.2 		"/>
		<polyline class="st3" points="12.8,34.1 12.8,34 45.9,35 45.9,35.1 		"/>
		<polyline class="st3" points="12.8,34 12.8,33.9 45.9,34.9 45.9,35 		"/>
		<polyline class="st3" points="12.8,33.9 12.8,33.8 45.9,34.8 45.9,34.9 		"/>
		<polyline class="st3" points="12.8,33.8 12.8,33.7 45.9,34.7 45.9,34.8 		"/>
		<polyline class="st3" points="12.8,33.7 12.8,33.6 45.9,34.6 45.9,34.7 		"/>
		<polyline class="st3" points="12.8,33.6 12.8,33.5 45.9,34.5 45.9,34.6 		"/>
		<polyline class="st3" points="12.8,33.5 12.9,33.4 45.9,34.4 45.9,34.5 		"/>
		<polyline class="st3" points="12.8,33.4 12.9,33.2 45.9,34.3 45.9,34.4 		"/>
		<polyline class="st3" points="12.9,33.3 12.9,33.1 45.9,34.2 45.9,34.3 		"/>
		<polyline class="st3" points="12.9,33.2 12.9,33 45.9,34 45.9,34.2 		"/>
		<polyline class="st3" points="12.9,33.1 12.9,32.9 46,33.9 45.9,34.1 		"/>
		<polyline class="st3" points="12.9,33 12.9,32.8 46,33.8 46,34 		"/>
		<polyline class="st3" points="12.9,32.9 12.9,32.7 46,33.7 46,33.9 		"/>
		<polyline class="st3" points="12.9,32.8 12.9,32.6 46,33.6 46,33.8 		"/>
		<polyline class="st3" points="12.9,32.7 12.9,32.5 46,33.5 46,33.7 		"/>
		<polyline class="st3" points="12.9,32.6 12.9,32.4 46,33.4 46,33.6 		"/>
		<polyline class="st3" points="12.9,32.5 12.9,32.3 46,33.3 46,33.5 		"/>
		<polyline class="st3" points="12.9,32.4 12.9,32.2 46,33.2 46,33.4 		"/>
		<polyline class="st3" points="12.9,32.3 12.9,32.1 46,33.1 46,33.3 		"/>
		<polyline class="st3" points="12.9,32.2 12.9,32 46,33 46,33.2 		"/>
		<polyline class="st3" points="12.9,32 12.9,31.9 46,32.9 46,33.1 		"/>
		<polyline class="st3" points="12.9,31.9 12.9,31.8 46,32.8 46,32.9 		"/>
		<polyline class="st3" points="12.9,31.8 12.9,31.7 46,32.7 46,32.8 		"/>
		<polyline class="st3" points="12.9,31.7 12.9,31.6 46,32.6 46,32.7 		"/>
		<polyline class="st3" points="12.9,31.6 12.9,31.5 46,32.5 46,32.6 		"/>
		<polyline class="st3" points="12.9,31.5 12.9,31.4 46,32.4 46,32.5 		"/>
		<polyline class="st3" points="12.9,31.4 12.9,31.3 46,32.3 46,32.4 		"/>
		<polyline class="st3" points="12.9,31.3 12.9,31.2 46,32.2 46,32.3 		"/>
		<polyline class="st3" points="12.9,31.2 12.9,31.1 46,32.1 46,32.2 		"/>
		<polyline class="st3" points="12.9,31.1 12.9,31 46,32 46,32.1 		"/>
		<polyline class="st3" points="12.9,31 12.9,30.8 46,31.9 46,32 		"/>
		<polyline class="st3" points="12.9,30.9 12.9,30.7 46,31.7 46,31.9 		"/>
		<polyline class="st3" points="12.9,30.8 12.9,30.6 46,31.6 46,31.8 		"/>
		<polyline class="st3" points="12.9,30.7 12.9,30.5 46,31.5 46,31.7 		"/>
		<polyline class="st3" points="12.9,30.6 12.9,30.4 46,31.4 46,31.6 		"/>
		<polyline class="st3" points="12.9,30.5 12.9,30.3 46,31.3 46,31.5 		"/>
		<polyline class="st3" points="12.9,30.4 12.9,30.2 46,31.2 46,31.4 		"/>
		<polyline class="st3" points="12.9,30.3 12.9,30.1 46,31.1 46,31.3 		"/>
		<polyline class="st3" points="12.9,30.2 13,30 46,31 46,31.2 		"/>
		<polyline class="st3" points="13,30.1 13,29.9 46,30.9 46,31.1 		"/>
		<polyline class="st3" points="13,30 13,29.8 46,30.8 46,31 		"/>
		<polyline class="st3" points="13,29.9 13,29.7 46.1,30.7 46,30.9 		"/>
		<polyline class="st3" points="13,29.7 13,29.6 46.1,30.6 46,30.8 		"/>
		<polyline class="st3" points="13,29.6 13,29.5 46.1,30.5 46.1,30.7 		"/>
		<polyline class="st3" points="13,29.5 13,29.4 46.1,30.4 46.1,30.5 		"/>
		<polyline class="st3" points="13,29.4 13,29.3 46.1,30.3 46.1,30.4 		"/>
		<polyline class="st3" points="13,29.3 13,29.2 46.1,30.2 46.1,30.3 		"/>
		<polyline class="st3" points="13,29.2 13,29.1 46.1,30.1 46.1,30.2 		"/>
		<polyline class="st3" points="13,29.1 13,29 46.1,30 46.1,30.1 		"/>
		<polyline class="st3" points="13,29 13,28.9 46.1,29.9 46.1,30 		"/>
		<polyline class="st3" points="13,28.9 13,28.8 46.1,29.8 46.1,29.9 		"/>
		<polyline class="st3" points="13,28.8 13,28.7 46.1,29.7 46.1,29.8 		"/>
		<polyline class="st3" points="13,28.7 13,28.5 46.1,29.6 46.1,29.7 		"/>
		<polyline class="st3" points="13,28.6 13,28.4 46.1,29.5 46.1,29.6 		"/>
		<polyline class="st3" points="13,28.5 13,28.3 46.1,29.3 46.1,29.5 		"/>
		<polyline class="st3" points="13,28.4 13,28.2 46.1,29.2 46.1,29.4 		"/>
		<polyline class="st3" points="13,28.3 13,28.1 46.1,29.1 46.1,29.3 		"/>
		<polyline class="st3" points="13,28.2 13,28 46.1,29 46.1,29.2 		"/>
		<polyline class="st3" points="13,28.1 13,27.9 46.1,28.9 46.1,29.1 		"/>
		<polyline class="st3" points="13,28 13,27.8 46.1,28.8 46.1,29 		"/>
		<polyline class="st3" points="13,27.9 13,27.7 46.1,28.7 46.1,28.9 		"/>
		<polyline class="st3" points="13,27.8 13,27.6 46.1,28.6 46.1,28.8 		"/>
		<polyline class="st3" points="13,27.7 13,27.5 46.1,28.5 46.1,28.7 		"/>
		<polyline class="st3" points="13,27.6 13,27.4 46.1,28.4 46.1,28.6 		"/>
		<polyline class="st3" points="13,27.5 13,27.3 46.1,28.3 46.1,28.5 		"/>
		<polyline class="st3" points="13,27.3 13,27.2 46.1,28.2 46.1,28.4 		"/>
		<polyline class="st3" points="13,27.2 13,27.1 46.1,28.1 46.1,28.3 		"/>
		<polyline class="st3" points="13,27.1 13,27 46.1,28 46.1,28.1 		"/>
		<polyline class="st3" points="13,27 13,26.9 46.1,27.9 46.1,28 		"/>
		<polyline class="st3" points="13,26.9 13.1,26.8 46.1,27.8 46.1,27.9 		"/>
		<polyline class="st3" points="13,26.8 13.1,26.7 46.1,27.7 46.1,27.8 		"/>
		<polyline class="st3" points="13.1,26.7 13.1,26.6 46.1,27.6 46.1,27.7 		"/>
		<polyline class="st3" points="13.1,26.6 13.1,26.5 46.1,27.5 46.1,27.6 		"/>
		<polyline class="st3" points="13.1,26.5 13.1,26.4 46.2,27.4 46.1,27.5 		"/>
		<polyline class="st3" points="13.1,26.4 13.1,26.3 46.2,27.3 46.2,27.4 		"/>
		<polyline class="st3" points="13.1,26.3 13.1,26.1 46.2,27.2 46.2,27.3 		"/>
		<polyline class="st3" points="13.1,26.2 13.1,26 46.2,27.1 46.2,27.2 		"/>
		<polyline class="st3" points="13.1,26.1 13.1,25.9 46.2,26.9 46.2,27.1 		"/>
		<polyline class="st3" points="13.1,26 13.1,25.8 46.2,26.8 46.2,27 		"/>
		<polyline class="st3" points="13.1,25.9 13.1,25.7 46.2,26.7 46.2,26.9 		"/>
		<polyline class="st3" points="13.1,25.8 13.1,25.1 46.2,26.1 46.2,26.8 		"/>
	</g>
	<g>
		<defs>
			<polygon id="SVGID_3_" points="33.9,46.6 42,46.3 45.4,52.8 12.3,52.8 15.5,46.6 			"/>
		</defs>
		<use xlink:href="#SVGID_3_"  style="overflow:visible;fill-rule:evenodd;clip-rule:evenodd;fill:#BE2026;"/>
		<clipPath id="SVGID_4_">
			<use xlink:href="#SVGID_3_"  style="overflow:visible;"/>
		</clipPath>
		<polyline class="st4" points="43.9,59.7 43.2,59.5 45.9,47.1 46.6,47.3 		"/>
		<polyline class="st4" points="43.2,59.5 43,59.5 45.7,47.1 45.9,47.1 		"/>
		<polyline class="st4" points="43.1,59.5 42.9,59.4 45.6,47.1 45.8,47.1 		"/>
		<polyline class="st4" points="43,59.5 42.8,59.4 45.5,47 45.7,47.1 		"/>
		<polyline class="st4" points="42.9,59.4 42.7,59.4 45.4,47 45.5,47.1 		"/>
		<polyline class="st4" points="42.7,59.4 42.6,59.4 45.2,47 45.4,47 		"/>
		<polyline class="st4" points="42.6,59.4 42.4,59.3 45.1,47 45.3,47 		"/>
		<polyline class="st4" points="42.5,59.3 42.3,59.3 45,46.9 45.2,47 		"/>
		<polyline class="st4" points="42.4,59.3 42.2,59.3 44.9,46.9 45,46.9 		"/>
		<polyline class="st4" points="42.2,59.3 42.1,59.3 44.7,46.9 44.9,46.9 		"/>
		<polyline class="st4" points="42.1,59.3 41.9,59.2 44.6,46.9 44.8,46.9 		"/>
		<polyline class="st4" points="42,59.2 41.8,59.2 44.5,46.8 44.7,46.9 		"/>
		<polyline class="st4" points="41.9,59.2 41.7,59.2 44.4,46.8 44.6,46.8 		"/>
		<polyline class="st4" points="41.7,59.2 41.6,59.1 44.2,46.8 44.4,46.8 		"/>
		<polyline class="st4" points="41.6,59.2 41.4,59.1 44.1,46.7 44.3,46.8 		"/>
		<polyline class="st4" points="41.5,59.1 41.3,59.1 44,46.7 44.2,46.8 		"/>
		<polyline class="st4" points="41.4,59.1 41.2,59.1 43.9,46.7 44.1,46.7 		"/>
		<polyline class="st4" points="41.3,59.1 41.1,59 43.8,46.7 43.9,46.7 		"/>
		<polyline class="st4" points="41.1,59.1 40.9,59 43.6,46.6 43.8,46.7 		"/>
		<polyline class="st4" points="41,59 40.8,59 43.5,46.6 43.7,46.7 		"/>
		<polyline class="st4" points="40.9,59 40.7,59 43.4,46.6 43.6,46.6 		"/>
		<polyline class="st4" points="40.8,59 40.6,58.9 43.3,46.6 43.4,46.6 		"/>
		<polyline class="st4" points="40.6,58.9 40.4,58.9 43.1,46.5 43.3,46.6 		"/>
		<polyline class="st4" points="40.5,58.9 40.3,58.9 43,46.5 43.2,46.5 		"/>
		<polyline class="st4" points="40.4,58.9 40.2,58.9 42.9,46.5 43.1,46.5 		"/>
		<polyline class="st4" points="40.3,58.9 40.1,58.8 42.8,46.4 42.9,46.5 		"/>
		<polyline class="st4" points="40.1,58.8 40,58.8 42.6,46.4 42.8,46.5 		"/>
		<polyline class="st4" points="40,58.8 39.8,58.8 42.5,46.4 42.7,46.4 		"/>
		<polyline class="st4" points="39.9,58.8 39.7,58.7 42.4,46.4 42.6,46.4 		"/>
		<polyline class="st4" points="39.8,58.8 39.6,58.7 42.3,46.3 42.5,46.4 		"/>
		<polyline class="st4" points="39.6,58.7 39.5,58.7 42.1,46.3 42.3,46.4 		"/>
		<polyline class="st4" points="39.5,58.7 39.3,58.7 42,46.3 42.2,46.3 		"/>
		<polyline class="st4" points="39.4,58.7 39.2,58.6 41.9,46.3 42.1,46.3 		"/>
		<polyline class="st4" points="39.3,58.7 39.1,58.6 41.8,46.2 42,46.3 		"/>
		<polyline class="st4" points="39.2,58.6 39,58.6 41.6,46.2 41.8,46.2 		"/>
		<polyline class="st4" points="39,58.6 38.8,58.6 41.5,46.2 41.7,46.2 		"/>
		<polyline class="st4" points="38.9,58.6 38.7,58.5 41.4,46.2 41.6,46.2 		"/>
		<polyline class="st4" points="38.8,58.5 38.6,58.5 41.3,46.1 41.5,46.2 		"/>
		<polyline class="st4" points="38.7,58.5 38.5,58.5 41.2,46.1 41.3,46.1 		"/>
		<polyline class="st4" points="38.5,58.5 38.3,58.4 41,46.1 41.2,46.1 		"/>
		<polyline class="st4" points="38.4,58.5 38.2,58.4 40.9,46 41.1,46.1 		"/>
		<polyline class="st4" points="38.3,58.4 38.1,58.4 40.8,46 41,46.1 		"/>
		<polyline class="st4" points="38.2,58.4 38,58.4 40.7,46 40.8,46 		"/>
		<polyline class="st4" points="38,58.4 37.9,58.3 40.5,46 40.7,46 		"/>
		<polyline class="st4" points="37.9,58.4 37.7,58.3 40.4,45.9 40.6,46 		"/>
		<polyline class="st4" points="37.8,58.3 37.6,58.3 40.3,45.9 40.5,46 		"/>
		<polyline class="st4" points="37.7,58.3 37.5,58.3 40.2,45.9 40.4,45.9 		"/>
		<polyline class="st4" points="37.5,58.3 37.4,58.2 40,45.9 40.2,45.9 		"/>
		<polyline class="st4" points="37.4,58.2 37.2,58.2 39.9,45.8 40.1,45.9 		"/>
		<polyline class="st4" points="37.3,58.2 37.1,58.2 39.8,45.8 40,45.8 		"/>
		<polyline class="st4" points="37.2,58.2 37,58.2 39.7,45.8 39.9,45.8 		"/>
		<polyline class="st4" points="37,58.2 36.9,58.1 39.5,45.8 39.7,45.8 		"/>
		<polyline class="st4" points="36.9,58.1 36.7,58.1 39.4,45.7 39.6,45.8 		"/>
		<polyline class="st4" points="36.8,58.1 36.6,58.1 39.3,45.7 39.5,45.7 		"/>
		<polyline class="st4" points="36.7,58.1 36.5,58 39.2,45.7 39.4,45.7 		"/>
		<polyline class="st4" points="36.6,58.1 36.4,58 39.1,45.6 39.2,45.7 		"/>
		<polyline class="st4" points="36.4,58 36.2,58 38.9,45.6 39.1,45.7 		"/>
		<polyline class="st4" points="36.3,58 36.1,58 38.8,45.6 39,45.6 		"/>
		<polyline class="st4" points="36.2,58 36,57.9 38.7,45.6 38.9,45.6 		"/>
		<polyline class="st4" points="36.1,58 35.9,57.9 38.6,45.5 38.7,45.6 		"/>
		<polyline class="st4" points="35.9,57.9 35.7,57.9 38.4,45.5 38.6,45.6 		"/>
		<polyline class="st4" points="35.8,57.9 35.6,57.9 38.3,45.5 38.5,45.5 		"/>
		<polyline class="st4" points="35.7,57.9 35.5,57.8 38.2,45.5 38.4,45.5 		"/>
		<polyline class="st4" points="35.6,57.8 35.4,57.8 38.1,45.4 38.2,45.5 		"/>
		<polyline class="st4" points="35.4,57.8 35.3,57.8 37.9,45.4 38.1,45.4 		"/>
		<polyline class="st4" points="35.3,57.8 35.1,57.8 37.8,45.4 38,45.4 		"/>
		<polyline class="st4" points="35.2,57.8 35,57.7 37.7,45.4 37.9,45.4 		"/>
		<polyline class="st4" points="35.1,57.7 34.9,57.7 37.6,45.3 37.8,45.4 		"/>
		<polyline class="st4" points="34.9,57.7 34.8,57.7 37.4,45.3 37.6,45.3 		"/>
		<polyline class="st4" points="34.8,57.7 34.6,57.6 37.3,45.3 37.5,45.3 		"/>
		<polyline class="st4" points="34.7,57.7 34.5,57.6 37.2,45.2 37.4,45.3 		"/>
		<polyline class="st4" points="34.6,57.6 34.4,57.6 37.1,45.2 37.3,45.3 		"/>
		<polyline class="st4" points="34.5,57.6 34.3,57.6 36.9,45.2 37.1,45.2 		"/>
		<polyline class="st4" points="34.3,57.6 34.1,57.5 36.8,45.2 37,45.2 		"/>
		<polyline class="st4" points="34.2,57.6 34,57.5 36.7,45.1 36.9,45.2 		"/>
		<polyline class="st4" points="34.1,57.5 33.9,57.5 36.6,45.1 36.8,45.1 		"/>
		<polyline class="st4" points="34,57.5 33.8,57.5 36.5,45.1 36.6,45.1 		"/>
		<polyline class="st4" points="33.8,57.5 33.6,57.4 36.3,45.1 36.5,45.1 		"/>
		<polyline class="st4" points="33.7,57.4 33.5,57.4 36.2,45 36.4,45.1 		"/>
		<polyline class="st4" points="33.6,57.4 33.4,57.4 36.1,45 36.3,45 		"/>
		<polyline class="st4" points="33.5,57.4 33.3,57.4 36,45 36.1,45 		"/>
		<polyline class="st4" points="33.3,57.4 33.2,57.3 35.8,44.9 36,45 		"/>
		<polyline class="st4" points="33.2,57.3 33,57.3 35.7,44.9 35.9,45 		"/>
		<polyline class="st4" points="33.1,57.3 32.9,57.3 35.6,44.9 35.8,44.9 		"/>
		<polyline class="st4" points="33,57.3 32.8,57.2 35.5,44.9 35.6,44.9 		"/>
		<polyline class="st4" points="32.8,57.3 32.7,57.2 35.3,44.8 35.5,44.9 		"/>
		<polyline class="st4" points="32.7,57.2 32.5,57.2 35.2,44.8 35.4,44.9 		"/>
		<polyline class="st4" points="32.6,57.2 32.4,57.2 35.1,44.8 35.3,44.8 		"/>
		<polyline class="st4" points="32.5,57.2 32.3,57.1 35,44.8 35.2,44.8 		"/>
		<polyline class="st4" points="32.3,57.1 32.2,57.1 34.8,44.7 35,44.8 		"/>
		<polyline class="st4" points="32.2,57.1 32,57.1 34.7,44.7 34.9,44.7 		"/>
		<polyline class="st4" points="32.1,57.1 31.9,57.1 34.6,44.7 34.8,44.7 		"/>
		<polyline class="st4" points="32,57.1 31.8,57 34.5,44.7 34.7,44.7 		"/>
		<polyline class="st4" points="31.9,57 31.7,57 34.4,44.6 34.5,44.7 		"/>
		<polyline class="st4" points="31.7,57 31.5,57 34.2,44.6 34.4,44.6 		"/>
		<polyline class="st4" points="31.6,57 31.4,56.9 34.1,44.6 34.3,44.6 		"/>
		<polyline class="st4" points="31.5,57 31.3,56.9 34,44.5 34.2,44.6 		"/>
		<polyline class="st4" points="31.4,56.9 31.2,56.9 33.9,44.5 34,44.6 		"/>
		<polyline class="st4" points="31.2,56.9 31,56.9 33.7,44.5 33.9,44.5 		"/>
		<polyline class="st4" points="31.1,56.9 30.9,56.8 33.6,44.5 33.8,44.5 		"/>
		<polyline class="st4" points="31,56.9 30.8,56.8 33.5,44.4 33.7,44.5 		"/>
		<polyline class="st4" points="30.9,56.8 30.7,56.8 33.4,44.4 33.5,44.5 		"/>
		<polyline class="st4" points="30.7,56.8 30.6,56.8 33.2,44.4 33.4,44.4 		"/>
		<polyline class="st4" points="30.6,56.8 30.4,56.7 33.1,44.4 33.3,44.4 		"/>
		<polyline class="st4" points="30.5,56.7 30.3,56.7 33,44.3 33.2,44.4 		"/>
		<polyline class="st4" points="30.4,56.7 30.2,56.7 32.9,44.3 33.1,44.3 		"/>
		<polyline class="st4" points="30.2,56.7 30.1,56.7 32.7,44.3 32.9,44.3 		"/>
		<polyline class="st4" points="30.1,56.7 29.9,56.6 32.6,44.3 32.8,44.3 		"/>
		<polyline class="st4" points="30,56.6 29.8,56.6 32.5,44.2 32.7,44.3 		"/>
		<polyline class="st4" points="29.9,56.6 29.7,56.6 32.4,44.2 32.6,44.2 		"/>
		<polyline class="st4" points="29.8,56.6 29.6,56.5 32.2,44.2 32.4,44.2 		"/>
		<polyline class="st4" points="29.6,56.6 29.4,56.5 32.1,44.1 32.3,44.2 		"/>
		<polyline class="st4" points="29.5,56.5 29.3,56.5 32,44.1 32.2,44.2 		"/>
		<polyline class="st4" points="29.4,56.5 29.2,56.5 31.9,44.1 32.1,44.1 		"/>
		<polyline class="st4" points="29.3,56.5 29.1,56.4 31.8,44.1 31.9,44.1 		"/>
		<polyline class="st4" points="29.1,56.5 28.9,56.4 31.6,44 31.8,44.1 		"/>
		<polyline class="st4" points="29,56.4 28.8,56.4 31.5,44 31.7,44.1 		"/>
		<polyline class="st4" points="28.9,56.4 28.7,56.4 31.4,44 31.6,44 		"/>
		<polyline class="st4" points="28.8,56.4 28.6,56.3 31.3,44 31.4,44 		"/>
		<polyline class="st4" points="28.6,56.3 28.5,56.3 31.1,43.9 31.3,44 		"/>
		<polyline class="st4" points="28.5,56.3 28.3,56.3 31,43.9 31.2,43.9 		"/>
		<polyline class="st4" points="28.4,56.3 28.2,56.3 30.9,43.9 31.1,43.9 		"/>
		<polyline class="st4" points="28.3,56.3 28.1,56.2 30.8,43.8 31,43.9 		"/>
		<polyline class="st4" points="28.1,56.2 28,56.2 30.6,43.8 30.8,43.9 		"/>
		<polyline class="st4" points="28,56.2 27.8,56.2 30.5,43.8 30.7,43.8 		"/>
		<polyline class="st4" points="27.9,56.2 27.7,56.1 30.4,43.8 30.6,43.8 		"/>
		<polyline class="st4" points="27.8,56.2 27.6,56.1 30.3,43.7 30.5,43.8 		"/>
		<polyline class="st4" points="27.6,56.1 27.5,56.1 30.1,43.7 30.3,43.8 		"/>
		<polyline class="st4" points="27.5,56.1 27.3,56.1 30,43.7 30.2,43.7 		"/>
		<polyline class="st4" points="27.4,56.1 27.2,56 29.9,43.7 30.1,43.7 		"/>
		<polyline class="st4" points="27.3,56.1 27.1,56 29.8,43.6 30,43.7 		"/>
		<polyline class="st4" points="27.2,56 27,56 29.7,43.6 29.8,43.6 		"/>
		<polyline class="st4" points="27,56 26.8,56 29.5,43.6 29.7,43.6 		"/>
		<polyline class="st4" points="26.9,56 26.7,55.9 29.4,43.6 29.6,43.6 		"/>
		<polyline class="st4" points="26.8,55.9 26.6,55.9 29.3,43.5 29.5,43.6 		"/>
		<polyline class="st4" points="26.7,55.9 26.5,55.9 29.2,43.5 29.3,43.5 		"/>
		<polyline class="st4" points="26.5,55.9 26.4,55.8 29,43.5 29.2,43.5 		"/>
		<polyline class="st4" points="26.4,55.9 26.2,55.8 28.9,43.4 29.1,43.5 		"/>
		<polyline class="st4" points="26.3,55.8 26.1,55.8 28.8,43.4 29,43.5 		"/>
		<polyline class="st4" points="26.2,55.8 26,55.8 28.7,43.4 28.8,43.4 		"/>
		<polyline class="st4" points="26,55.8 25.9,55.7 28.5,43.4 28.7,43.4 		"/>
		<polyline class="st4" points="25.9,55.8 25.7,55.7 28.4,43.3 28.6,43.4 		"/>
		<polyline class="st4" points="25.8,55.7 25.6,55.7 28.3,43.3 28.5,43.4 		"/>
		<polyline class="st4" points="25.7,55.7 25.5,55.7 28.2,43.3 28.4,43.3 		"/>
		<polyline class="st4" points="25.5,55.7 25.4,55.6 28,43.3 28.2,43.3 		"/>
		<polyline class="st4" points="25.4,55.6 25.2,55.6 27.9,43.2 28.1,43.3 		"/>
		<polyline class="st4" points="25.3,55.6 25.1,55.6 27.8,43.2 28,43.2 		"/>
		<polyline class="st4" points="25.2,55.6 25,55.6 27.7,43.2 27.9,43.2 		"/>
		<polyline class="st4" points="25.1,55.6 24.9,55.5 27.6,43.2 27.7,43.2 		"/>
		<polyline class="st4" points="24.9,55.5 24.7,55.5 27.4,43.1 27.6,43.2 		"/>
		<polyline class="st4" points="24.8,55.5 24.6,55.5 27.3,43.1 27.5,43.1 		"/>
		<polyline class="st4" points="24.7,55.5 24.5,55.4 27.2,43.1 27.4,43.1 		"/>
		<polyline class="st4" points="24.6,55.5 24.4,55.4 27.1,43 27.2,43.1 		"/>
		<polyline class="st4" points="24.4,55.4 24.2,55.4 26.9,43 27.1,43.1 		"/>
		<polyline class="st4" points="24.3,55.4 24.1,55.4 26.8,43 27,43 		"/>
		<polyline class="st4" points="24.2,55.4 24,55.3 26.7,43 26.9,43 		"/>
		<polyline class="st4" points="24.1,55.4 23.9,55.3 26.6,42.9 26.7,43 		"/>
		<polyline class="st4" points="23.9,55.3 23.8,55.3 26.4,42.9 26.6,43 		"/>
		<polyline class="st4" points="23.8,55.3 23.6,55.3 26.3,42.9 26.5,42.9 		"/>
		<polyline class="st4" points="23.7,55.3 23.5,55.2 26.2,42.9 26.4,42.9 		"/>
		<polyline class="st4" points="23.6,55.2 23.4,55.2 26.1,42.8 26.3,42.9 		"/>
		<polyline class="st4" points="23.4,55.2 23.3,55.2 25.9,42.8 26.1,42.8 		"/>
		<polyline class="st4" points="23.3,55.2 23.1,55.2 25.8,42.8 26,42.8 		"/>
		<polyline class="st4" points="23.2,55.2 23,55.1 25.7,42.7 25.9,42.8 		"/>
		<polyline class="st4" points="23.1,55.1 22.9,55.1 25.6,42.7 25.8,42.8 		"/>
		<polyline class="st4" points="22.9,55.1 22.8,55.1 25.4,42.7 25.6,42.7 		"/>
		<polyline class="st4" points="22.8,55.1 22.6,55 25.3,42.7 25.5,42.7 		"/>
		<polyline class="st4" points="22.7,55.1 22.5,55 25.2,42.6 25.4,42.7 		"/>
		<polyline class="st4" points="22.6,55 22.4,55 25.1,42.6 25.3,42.7 		"/>
		<polyline class="st4" points="22.5,55 22.3,55 25,42.6 25.1,42.6 		"/>
		<polyline class="st4" points="22.3,55 22.1,54.9 24.8,42.6 25,42.6 		"/>
		<polyline class="st4" points="22.2,55 22,54.9 24.7,42.5 24.9,42.6 		"/>
		<polyline class="st4" points="22.1,54.9 21.9,54.9 24.6,42.5 24.8,42.5 		"/>
		<polyline class="st4" points="22,54.9 21.8,54.9 24.5,42.5 24.6,42.5 		"/>
		<polyline class="st4" points="21.8,54.9 21.7,54.8 24.3,42.5 24.5,42.5 		"/>
		<polyline class="st4" points="21.7,54.8 21.5,54.8 24.2,42.4 24.4,42.5 		"/>
		<polyline class="st4" points="21.6,54.8 21.4,54.8 24.1,42.4 24.3,42.4 		"/>
		<polyline class="st4" points="21.5,54.8 21.3,54.8 24,42.4 24.1,42.4 		"/>
		<polyline class="st4" points="21.3,54.8 21.2,54.7 23.8,42.3 24,42.4 		"/>
		<polyline class="st4" points="21.2,54.7 21,54.7 23.7,42.3 23.9,42.4 		"/>
		<polyline class="st4" points="21.1,54.7 20.9,54.7 23.6,42.3 23.8,42.3 		"/>
		<polyline class="st4" points="21,54.7 20.8,54.6 23.5,42.3 23.7,42.3 		"/>
		<polyline class="st4" points="20.8,54.7 20.7,54.6 23.3,42.2 23.5,42.3 		"/>
		<polyline class="st4" points="20.7,54.6 20.5,54.6 23.2,42.2 23.4,42.3 		"/>
		<polyline class="st4" points="20.6,54.6 20.4,54.6 23.1,42.2 23.3,42.2 		"/>
		<polyline class="st4" points="20.5,54.6 20.3,54.5 23,42.2 23.2,42.2 		"/>
		<polyline class="st4" points="20.4,54.5 20.2,54.5 22.8,42.1 23,42.2 		"/>
		<polyline class="st4" points="20.2,54.5 20,54.5 22.7,42.1 22.9,42.1 		"/>
		<polyline class="st4" points="20.1,54.5 19.9,54.5 22.6,42.1 22.8,42.1 		"/>
		<polyline class="st4" points="20,54.5 19.8,54.4 22.5,42.1 22.7,42.1 		"/>
		<polyline class="st4" points="19.9,54.4 19.7,54.4 22.4,42 22.5,42.1 		"/>
		<polyline class="st4" points="19.7,54.4 19.5,54.4 22.2,42 22.4,42 		"/>
		<polyline class="st4" points="19.6,54.4 19.4,54.3 22.1,42 22.3,42 		"/>
		<polyline class="st4" points="19.5,54.4 19.3,54.3 22,41.9 22.2,42 		"/>
		<polyline class="st4" points="19.4,54.3 19.2,54.3 21.9,41.9 22,42 		"/>
		<polyline class="st4" points="19.2,54.3 19.1,54.3 21.7,41.9 21.9,41.9 		"/>
		<polyline class="st4" points="19.1,54.3 18.9,54.2 21.6,41.9 21.8,41.9 		"/>
		<polyline class="st4" points="19,54.3 18.8,54.2 21.5,41.8 21.7,41.9 		"/>
		<polyline class="st4" points="18.9,54.2 18.7,54.2 21.4,41.8 21.6,41.9 		"/>
		<polyline class="st4" points="18.7,54.2 18.6,54.2 21.2,41.8 21.4,41.8 		"/>
		<polyline class="st4" points="18.6,54.2 18.4,54.1 21.1,41.8 21.3,41.8 		"/>
		<polyline class="st4" points="18.5,54.1 18.3,54.1 21,41.7 21.2,41.8 		"/>
		<polyline class="st4" points="18.4,54.1 18.2,54.1 20.9,41.7 21.1,41.7 		"/>
		<polyline class="st4" points="18.2,54.1 18.1,54.1 20.7,41.7 20.9,41.7 		"/>
		<polyline class="st4" points="18.1,54.1 17.9,54 20.6,41.7 20.8,41.7 		"/>
		<polyline class="st4" points="18,54 17.8,54 20.5,41.6 20.7,41.7 		"/>
		<polyline class="st4" points="17.9,54 17.7,54 20.4,41.6 20.6,41.6 		"/>
		<polyline class="st4" points="17.8,54 17.6,53.9 20.3,41.6 20.4,41.6 		"/>
		<polyline class="st4" points="17.6,54 17.4,53.9 20.1,41.5 20.3,41.6 		"/>
		<polyline class="st4" points="17.5,53.9 17.3,53.9 20,41.5 20.2,41.6 		"/>
		<polyline class="st4" points="17.4,53.9 17.2,53.9 19.9,41.5 20.1,41.5 		"/>
		<polyline class="st4" points="17.3,53.9 17.1,53.8 19.8,41.5 19.9,41.5 		"/>
		<polyline class="st4" points="17.1,53.9 17,53.8 19.6,41.4 19.8,41.5 		"/>
		<polyline class="st4" points="17,53.8 16.8,53.8 19.5,41.4 19.7,41.4 		"/>
		<polyline class="st4" points="16.9,53.8 16.7,53.8 19.4,41.4 19.6,41.4 		"/>
		<polyline class="st4" points="16.8,53.8 16.6,53.7 19.3,41.4 19.4,41.4 		"/>
		<polyline class="st4" points="16.6,53.7 16.5,53.7 19.1,41.3 19.3,41.4 		"/>
		<polyline class="st4" points="16.5,53.7 16.3,53.7 19,41.3 19.2,41.3 		"/>
		<polyline class="st4" points="16.4,53.7 16.2,53.7 18.9,41.3 19.1,41.3 		"/>
		<polyline class="st4" points="16.3,53.7 16.1,53.6 18.8,41.2 19,41.3 		"/>
		<polyline class="st4" points="16.1,53.6 16,53.6 18.6,41.2 18.8,41.3 		"/>
		<polyline class="st4" points="16,53.6 15.8,53.6 18.5,41.2 18.7,41.2 		"/>
		<polyline class="st4" points="15.9,53.6 15.7,53.5 18.4,41.2 18.6,41.2 		"/>
		<polyline class="st4" points="15.8,53.6 15.6,53.5 18.3,41.1 18.5,41.2 		"/>
		<polyline class="st4" points="15.7,53.5 15.5,53.5 18.2,41.1 18.3,41.2 		"/>
		<polyline class="st4" points="15.5,53.5 15.3,53.5 18,41.1 18.2,41.1 		"/>
		<polyline class="st4" points="15.4,53.5 15.2,53.4 17.9,41.1 18.1,41.1 		"/>
		<polyline class="st4" points="15.3,53.4 15.1,53.4 17.8,41 18,41.1 		"/>
		<polyline class="st4" points="15.2,53.4 15,53.4 17.7,41 17.8,41 		"/>
		<polyline class="st4" points="15,53.4 14.8,53.4 17.5,41 17.7,41 		"/>
		<polyline class="st4" points="14.9,53.4 14.7,53.3 17.4,41 17.6,41 		"/>
		<polyline class="st4" points="14.8,53.3 14.6,53.3 17.3,40.9 17.5,41 		"/>
		<polyline class="st4" points="14.7,53.3 14.5,53.3 17.2,40.9 17.3,40.9 		"/>
		<polyline class="st4" points="14.5,53.3 14.4,53.2 17,40.9 17.2,40.9 		"/>
		<polyline class="st4" points="14.4,53.3 14.2,53.2 16.9,40.8 17.1,40.9 		"/>
		<polyline class="st4" points="14.3,53.2 14.1,53.2 16.8,40.8 17,40.9 		"/>
		<polyline class="st4" points="14.2,53.2 14,53.2 16.7,40.8 16.9,40.8 		"/>
		<polyline class="st4" points="14,53.2 13.9,53.1 16.5,40.8 16.7,40.8 		"/>
		<polyline class="st4" points="13.9,53.2 13.7,53.1 16.4,40.7 16.6,40.8 		"/>
		<polyline class="st4" points="13.8,53.1 13.6,53.1 16.3,40.7 16.5,40.8 		"/>
		<polyline class="st4" points="13.7,53.1 13.5,53.1 16.2,40.7 16.4,40.7 		"/>
		<polyline class="st4" points="13.6,53.1 13.4,53 16,40.7 16.2,40.7 		"/>
		<polyline class="st4" points="13.4,53 13.2,53 15.9,40.6 16.1,40.7 		"/>
		<polyline class="st4" points="13.3,53 13.1,53 15.8,40.6 16,40.6 		"/>
		<polyline class="st4" points="13.2,53 13,53 15.7,40.6 15.9,40.6 		"/>
		<polyline class="st4" points="13.1,53 12.9,52.9 15.6,40.6 15.7,40.6 		"/>
		<polyline class="st4" points="12.9,52.9 12.7,52.9 15.4,40.5 15.6,40.6 		"/>
		<polyline class="st4" points="12.8,52.9 12.6,52.9 15.3,40.5 15.5,40.5 		"/>
		<polyline class="st4" points="12.7,52.9 12.5,52.8 15.2,40.5 15.4,40.5 		"/>
		<polyline class="st4" points="12.6,52.9 12.4,52.8 15.1,40.4 15.2,40.5 		"/>
		<polyline class="st4" points="12.4,52.8 12.3,52.8 14.9,40.4 15.1,40.5 		"/>
		<polyline class="st4" points="12.3,52.8 12.3,52.8 14.9,40.4 15,40.4 		"/>
	</g>
	<g>
		<defs>
			<path id="SVGID_5_" d="M24.4,27.8L7.8,57.3L0,57.4l18.4-35.8c0,0,3.4-4.7,6.9-3.4c3.4,1.4,4.3,3.6,7,9c0.2,0.5,0.5,1,0.8,1.6
				c-1.9-1.9-4.3-3.2-7.7-1.8C25,27.3,24.6,27.4,24.4,27.8"/>
		</defs>
		<use xlink:href="#SVGID_5_"  style="overflow:visible;fill-rule:evenodd;clip-rule:evenodd;fill:#BE2026;"/>
		<clipPath id="SVGID_6_">
			<use xlink:href="#SVGID_5_"  style="overflow:visible;"/>
		</clipPath>
		<polyline class="st5" points="37.8,29.5 35.5,31.6 21.8,16.9 24.2,14.7 		"/>
		<polyline class="st5" points="35.5,31.6 35.4,31.7 21.7,17 21.9,16.9 		"/>
		<polyline class="st5" points="35.4,31.7 35.3,31.8 21.6,17.1 21.8,17 		"/>
		<polyline class="st5" points="35.3,31.8 35.2,31.9 21.5,17.2 21.7,17.1 		"/>
		<polyline class="st5" points="35.2,31.9 35.1,32 21.4,17.3 21.6,17.1 		"/>
		<polyline class="st5" points="35.1,32 35,32.1 21.3,17.4 21.5,17.2 		"/>
		<polyline class="st5" points="35,32.1 34.9,32.2 21.2,17.5 21.4,17.3 		"/>
		<polyline class="st5" points="34.9,32.2 34.8,32.3 21.1,17.6 21.3,17.4 		"/>
		<polyline class="st5" points="34.8,32.3 34.7,32.4 21,17.7 21.2,17.5 		"/>
		<polyline class="st5" points="34.7,32.4 34.6,32.5 20.9,17.8 21.1,17.6 		"/>
		<polyline class="st5" points="34.6,32.5 34.4,32.6 20.8,17.9 20.9,17.7 		"/>
		<polyline class="st5" points="34.5,32.6 34.3,32.7 20.7,18 20.8,17.8 		"/>
		<polyline class="st5" points="34.4,32.7 34.2,32.8 20.6,18.1 20.7,17.9 		"/>
		<polyline class="st5" points="34.3,32.7 34.1,32.9 20.5,18.2 20.6,18 		"/>
		<polyline class="st5" points="34.2,32.8 34,33 20.4,18.3 20.5,18.1 		"/>
		<polyline class="st5" points="34.1,32.9 33.9,33.1 20.3,18.3 20.4,18.2 		"/>
		<polyline class="st5" points="34,33 33.8,33.2 20.2,18.4 20.3,18.3 		"/>
		<polyline class="st5" points="33.9,33.1 33.7,33.3 20.1,18.5 20.2,18.4 		"/>
		<polyline class="st5" points="33.8,33.2 33.6,33.4 20,18.6 20.1,18.5 		"/>
		<polyline class="st5" points="33.7,33.3 33.5,33.5 19.9,18.7 20,18.6 		"/>
		<polyline class="st5" points="33.6,33.4 33.4,33.6 19.8,18.8 19.9,18.7 		"/>
		<polyline class="st5" points="33.5,33.5 33.3,33.7 19.7,18.9 19.8,18.8 		"/>
		<polyline class="st5" points="33.4,33.6 33.2,33.8 19.6,19 19.7,18.9 		"/>
		<polyline class="st5" points="33.3,33.7 33.1,33.9 19.4,19.1 19.6,19 		"/>
		<polyline class="st5" points="33.2,33.8 33,34 19.3,19.2 19.5,19.1 		"/>
		<polyline class="st5" points="33.1,33.9 32.9,34 19.2,19.3 19.4,19.2 		"/>
		<polyline class="st5" points="32.9,34 32.8,34.1 19.1,19.4 19.3,19.3 		"/>
		<polyline class="st5" points="32.8,34.1 32.7,34.2 19,19.5 19.2,19.4 		"/>
		<polyline class="st5" points="32.7,34.2 32.6,34.3 18.9,19.6 19.1,19.5 		"/>
		<polyline class="st5" points="32.6,34.3 32.5,34.4 18.8,19.7 19,19.5 		"/>
		<polyline class="st5" points="32.5,34.4 32.4,34.5 18.7,19.8 18.9,19.6 		"/>
		<polyline class="st5" points="32.4,34.5 32.3,34.6 18.6,19.9 18.8,19.7 		"/>
		<polyline class="st5" points="32.3,34.6 32.2,34.7 18.5,20 18.7,19.8 		"/>
		<polyline class="st5" points="32.2,34.7 32.1,34.8 18.4,20.1 18.6,19.9 		"/>
		<polyline class="st5" points="32.1,34.8 32,34.9 18.3,20.2 18.5,20 		"/>
		<polyline class="st5" points="32,34.9 31.9,35 18.2,20.3 18.4,20.1 		"/>
		<polyline class="st5" points="31.9,35 31.8,35.1 18.1,20.4 18.3,20.2 		"/>
		<polyline class="st5" points="31.8,35.1 31.7,35.2 18,20.5 18.2,20.3 		"/>
		<polyline class="st5" points="31.7,35.2 31.5,35.3 17.9,20.6 18,20.4 		"/>
		<polyline class="st5" points="31.6,35.2 31.4,35.4 17.8,20.7 17.9,20.5 		"/>
		<polyline class="st5" points="31.5,35.3 31.3,35.5 17.7,20.8 17.8,20.6 		"/>
		<polyline class="st5" points="31.4,35.4 31.2,35.6 17.6,20.8 17.7,20.7 		"/>
		<polyline class="st5" points="31.3,35.5 31.1,35.7 17.5,20.9 17.6,20.8 		"/>
		<polyline class="st5" points="31.2,35.6 31,35.8 17.4,21 17.5,20.9 		"/>
		<polyline class="st5" points="31.1,35.7 30.9,35.9 17.3,21.1 17.4,21 		"/>
		<polyline class="st5" points="31,35.8 30.8,36 17.2,21.2 17.3,21.1 		"/>
		<polyline class="st5" points="30.9,35.9 30.7,36.1 17.1,21.3 17.2,21.2 		"/>
		<polyline class="st5" points="30.8,36 30.6,36.2 17,21.4 17.1,21.3 		"/>
		<polyline class="st5" points="30.7,36.1 30.5,36.3 16.9,21.5 17,21.4 		"/>
		<polyline class="st5" points="30.6,36.2 30.4,36.4 16.8,21.6 16.9,21.5 		"/>
		<polyline class="st5" points="30.5,36.3 30.3,36.4 16.6,21.7 16.8,21.6 		"/>
		<polyline class="st5" points="30.4,36.4 30.2,36.5 16.5,21.8 16.7,21.7 		"/>
		<polyline class="st5" points="30.3,36.5 30.1,36.6 16.4,21.9 16.6,21.8 		"/>
		<polyline class="st5" points="30.1,36.6 30,36.7 16.3,22 16.5,21.9 		"/>
		<polyline class="st5" points="30,36.7 29.9,36.8 16.2,22.1 16.4,22 		"/>
		<polyline class="st5" points="29.9,36.8 29.8,36.9 16.1,22.2 16.3,22 		"/>
		<polyline class="st5" points="29.8,36.9 29.7,37 16,22.3 16.2,22.1 		"/>
		<polyline class="st5" points="29.7,37 29.6,37.1 15.9,22.4 16.1,22.2 		"/>
		<polyline class="st5" points="29.6,37.1 29.5,37.2 15.8,22.5 16,22.3 		"/>
		<polyline class="st5" points="29.5,37.2 29.4,37.3 15.7,22.6 15.9,22.4 		"/>
		<polyline class="st5" points="29.4,37.3 29.3,37.4 15.6,22.7 15.8,22.5 		"/>
		<polyline class="st5" points="29.3,37.4 29.2,37.5 15.5,22.8 15.7,22.6 		"/>
		<polyline class="st5" points="29.2,37.5 29.1,37.6 15.4,22.9 15.6,22.7 		"/>
		<polyline class="st5" points="29.1,37.6 29,37.7 15.3,23 15.5,22.8 		"/>
		<polyline class="st5" points="29,37.6 28.9,37.8 15.2,23.1 15.4,22.9 		"/>
		<polyline class="st5" points="28.9,37.7 28.7,37.9 15.1,23.2 15.3,23 		"/>
		<polyline class="st5" points="28.8,37.8 28.6,38 15,23.2 15.1,23.1 		"/>
		<polyline class="st5" points="28.7,37.9 28.5,38.1 14.9,23.3 15,23.2 		"/>
		<polyline class="st5" points="28.6,38 28.4,38.2 14.8,23.4 14.9,23.3 		"/>
		<polyline class="st5" points="28.5,38.1 28.3,38.3 14.7,23.5 14.8,23.4 		"/>
		<polyline class="st5" points="28.4,38.2 28.2,38.4 14.6,23.6 14.7,23.5 		"/>
		<polyline class="st5" points="28.3,38.3 28.1,38.5 14.5,23.7 14.6,23.6 		"/>
		<polyline class="st5" points="28.2,38.4 28,38.6 14.4,23.8 14.5,23.7 		"/>
		<polyline class="st5" points="28.1,38.5 27.9,38.7 14.3,23.9 14.4,23.8 		"/>
		<polyline class="st5" points="28,38.6 27.8,38.8 14.2,24 14.3,23.9 		"/>
		<polyline class="st5" points="27.9,38.7 27.7,38.8 14.1,24.1 14.2,24 		"/>
		<polyline class="st5" points="27.8,38.8 27.6,38.9 14,24.2 14.1,24.1 		"/>
		<polyline class="st5" points="27.7,38.9 27.5,39 13.9,24.3 14,24.2 		"/>
		<polyline class="st5" points="27.6,39 27.4,39.1 13.7,24.4 13.9,24.3 		"/>
		<polyline class="st5" points="27.5,39.1 27.3,39.2 13.6,24.5 13.8,24.4 		"/>
		<polyline class="st5" points="27.4,39.2 27.2,39.3 13.5,24.6 13.7,24.4 		"/>
		<polyline class="st5" points="27.2,39.3 27.1,39.4 13.4,24.7 13.6,24.5 		"/>
		<polyline class="st5" points="27.1,39.4 27,39.5 13.3,24.8 13.5,24.6 		"/>
		<polyline class="st5" points="27,39.5 26.9,39.6 13.2,24.9 13.4,24.7 		"/>
		<polyline class="st5" points="26.9,39.6 26.8,39.7 13.1,25 13.3,24.8 		"/>
		<polyline class="st5" points="26.8,39.7 26.7,39.8 13,25.1 13.2,24.9 		"/>
		<polyline class="st5" points="26.7,39.8 26.6,39.9 12.9,25.2 13.1,25 		"/>
		<polyline class="st5" points="26.6,39.9 26.5,40 12.8,25.3 13,25.1 		"/>
		<polyline class="st5" points="26.5,40 26.4,40.1 12.7,25.4 12.9,25.2 		"/>
		<polyline class="st5" points="26.4,40 26.3,40.2 12.6,25.5 12.8,25.3 		"/>
		<polyline class="st5" points="26.3,40.1 26.2,40.3 12.5,25.6 12.7,25.4 		"/>
		<polyline class="st5" points="26.2,40.2 26.1,40.4 12.4,25.6 12.6,25.5 		"/>
		<polyline class="st5" points="26.1,40.3 26,40.5 12.3,25.7 12.5,25.6 		"/>
		<polyline class="st5" points="26,40.4 25.8,40.6 12.2,25.8 12.3,25.7 		"/>
		<polyline class="st5" points="25.9,40.5 25.7,40.7 12.1,25.9 12.2,25.8 		"/>
		<polyline class="st5" points="25.8,40.6 25.6,40.8 12,26 12.1,25.9 		"/>
		<polyline class="st5" points="25.7,40.7 25.5,40.9 11.9,26.1 12,26 		"/>
		<polyline class="st5" points="25.6,40.8 25.4,41 11.8,26.2 11.9,26.1 		"/>
		<polyline class="st5" points="25.5,40.9 25.3,41.1 11.7,26.3 11.8,26.2 		"/>
		<polyline class="st5" points="25.4,41 25.2,41.2 11.6,26.4 11.7,26.3 		"/>
		<polyline class="st5" points="25.3,41.1 25.1,41.2 11.5,26.5 11.6,26.4 		"/>
		<polyline class="st5" points="25.2,41.2 25,41.3 11.4,26.6 11.5,26.5 		"/>
		<polyline class="st5" points="25.1,41.3 24.9,41.4 11.3,26.7 11.4,26.6 		"/>
		<polyline class="st5" points="25,41.4 24.8,41.5 11.2,26.8 11.3,26.7 		"/>
		<polyline class="st5" points="24.9,41.5 24.7,41.6 11.1,26.9 11.2,26.8 		"/>
		<polyline class="st5" points="24.8,41.6 24.6,41.7 10.9,27 11.1,26.8 		"/>
		<polyline class="st5" points="24.7,41.7 24.5,41.8 10.8,27.1 11,26.9 		"/>
		<polyline class="st5" points="24.6,41.8 24.4,41.9 10.7,27.2 10.9,27 		"/>
		<polyline class="st5" points="24.4,41.9 24.3,42 10.6,27.3 10.8,27.1 		"/>
		<polyline class="st5" points="24.3,42 24.2,42.1 10.5,27.4 10.7,27.2 		"/>
		<polyline class="st5" points="24.2,42.1 24.1,42.2 10.4,27.5 10.6,27.3 		"/>
		<polyline class="st5" points="24.1,42.2 24,42.3 10.3,27.6 10.5,27.4 		"/>
		<polyline class="st5" points="24,42.3 23.9,42.4 10.2,27.7 10.4,27.5 		"/>
		<polyline class="st5" points="23.9,42.4 23.8,42.5 10.1,27.8 10.3,27.6 		"/>
		<polyline class="st5" points="23.8,42.4 23.7,42.6 10,27.9 10.2,27.7 		"/>
		<polyline class="st5" points="23.7,42.5 23.6,42.7 9.9,28 10.1,27.8 		"/>
		<polyline class="st5" points="23.6,42.6 23.5,42.8 9.8,28 10,27.9 		"/>
		<polyline class="st5" points="23.5,42.7 23.4,42.9 9.7,28.1 9.9,28 		"/>
		<polyline class="st5" points="23.4,42.8 23.3,43 9.6,28.2 9.8,28.1 		"/>
		<polyline class="st5" points="23.3,42.9 23.2,43.1 9.5,28.3 9.7,28.2 		"/>
		<polyline class="st5" points="23.2,43 23,43.2 9.4,28.4 9.5,28.3 		"/>
		<polyline class="st5" points="23.1,43.1 22.9,43.3 9.3,28.5 9.4,28.4 		"/>
		<polyline class="st5" points="23,43.2 22.8,43.4 9.2,28.6 9.3,28.5 		"/>
		<polyline class="st5" points="22.9,43.3 22.7,43.5 9.1,28.7 9.2,28.6 		"/>
		<polyline class="st5" points="22.8,43.4 22.6,43.6 9,28.8 9.1,28.7 		"/>
		<polyline class="st5" points="22.7,43.5 22.5,43.7 8.9,28.9 9,28.8 		"/>
		<polyline class="st5" points="22.6,43.6 22.4,43.7 8.8,29 8.9,28.9 		"/>
		<polyline class="st5" points="22.5,43.7 22.3,43.8 8.7,29.1 8.8,29 		"/>
		<polyline class="st5" points="22.4,43.8 22.2,43.9 8.6,29.2 8.7,29.1 		"/>
		<polyline class="st5" points="22.3,43.9 22.1,44 8.5,29.3 8.6,29.2 		"/>
		<polyline class="st5" points="22.2,44 22,44.1 8.4,29.4 8.5,29.2 		"/>
		<polyline class="st5" points="22.1,44.1 21.9,44.2 8.3,29.5 8.4,29.3 		"/>
		<polyline class="st5" points="22,44.2 21.8,44.3 8.2,29.6 8.3,29.4 		"/>
		<polyline class="st5" points="21.9,44.3 21.7,44.4 8,29.7 8.2,29.5 		"/>
		<polyline class="st5" points="21.8,44.4 21.6,44.5 7.9,29.8 8.1,29.6 		"/>
		<polyline class="st5" points="21.7,44.5 21.5,44.6 7.8,29.9 8,29.7 		"/>
		<polyline class="st5" points="21.5,44.6 21.4,44.7 7.7,30 7.9,29.8 		"/>
		<polyline class="st5" points="21.4,44.7 21.3,44.8 7.6,30.1 7.8,29.9 		"/>
		<polyline class="st5" points="21.3,44.8 21.2,44.9 7.5,30.2 7.7,30 		"/>
		<polyline class="st5" points="21.2,44.9 21.1,45 7.4,30.3 7.6,30.1 		"/>
		<polyline class="st5" points="21.1,44.9 21,45.1 7.3,30.4 7.5,30.2 		"/>
		<polyline class="st5" points="21,45 20.9,45.2 7.2,30.4 7.4,30.3 		"/>
		<polyline class="st5" points="20.9,45.1 20.8,45.3 7.1,30.5 7.3,30.4 		"/>
		<polyline class="st5" points="20.8,45.2 20.7,45.4 7,30.6 7.2,30.5 		"/>
		<polyline class="st5" points="20.7,45.3 20.6,45.5 6.9,30.7 7.1,30.6 		"/>
		<polyline class="st5" points="20.6,45.4 20.5,45.6 6.8,30.8 7,30.7 		"/>
		<polyline class="st5" points="20.5,45.5 20.4,45.7 6.7,30.9 6.9,30.8 		"/>
		<polyline class="st5" points="20.4,45.6 20.3,45.8 6.6,31 6.8,30.9 		"/>
		<polyline class="st5" points="20.3,45.7 20.1,45.9 6.5,31.1 6.6,31 		"/>
		<polyline class="st5" points="20.2,45.8 20,46 6.4,31.2 6.5,31.1 		"/>
		<polyline class="st5" points="20.1,45.9 19.9,46.1 6.3,31.3 6.4,31.2 		"/>
		<polyline class="st5" points="20,46 19.8,46.1 6.2,31.4 6.3,31.3 		"/>
		<polyline class="st5" points="19.9,46.1 19.7,46.2 6.1,31.5 6.2,31.4 		"/>
		<polyline class="st5" points="19.8,46.2 19.6,46.3 6,31.6 6.1,31.5 		"/>
		<polyline class="st5" points="19.7,46.3 19.5,46.4 5.9,31.7 6,31.6 		"/>
		<polyline class="st5" points="19.6,46.4 19.4,46.5 5.8,31.8 5.9,31.7 		"/>
		<polyline class="st5" points="19.5,46.5 19.3,46.6 5.7,31.9 5.8,31.7 		"/>
		<polyline class="st5" points="19.4,46.6 19.2,46.7 5.6,32 5.7,31.8 		"/>
		<polyline class="st5" points="19.3,46.7 19.1,46.8 5.5,32.1 5.6,31.9 		"/>
		<polyline class="st5" points="19.2,46.8 19,46.9 5.4,32.2 5.5,32 		"/>
		<polyline class="st5" points="19.1,46.9 18.9,47 5.2,32.3 5.4,32.1 		"/>
		<polyline class="st5" points="19,47 18.8,47.1 5.1,32.4 5.3,32.2 		"/>
		<polyline class="st5" points="18.9,47.1 18.7,47.2 5,32.5 5.2,32.3 		"/>
		<polyline class="st5" points="18.7,47.2 18.6,47.3 4.9,32.6 5.1,32.4 		"/>
		<polyline class="st5" points="18.6,47.3 18.5,47.4 4.8,32.7 5,32.5 		"/>
		<polyline class="st5" points="18.5,47.3 18.4,47.5 4.7,32.8 4.9,32.6 		"/>
		<polyline class="st5" points="18.4,47.4 18.3,47.6 4.6,32.9 4.8,32.7 		"/>
		<polyline class="st5" points="18.3,47.5 18.2,47.7 4.5,32.9 4.7,32.8 		"/>
		<polyline class="st5" points="18.2,47.6 18.1,47.8 4.4,33 4.6,32.9 		"/>
		<polyline class="st5" points="18.1,47.7 18,47.9 4.3,33.1 4.5,33 		"/>
		<polyline class="st5" points="18,47.8 17.9,48 4.2,33.2 4.4,33.1 		"/>
		<polyline class="st5" points="17.9,47.9 17.8,48.1 4.1,33.3 4.3,33.2 		"/>
		<polyline class="st5" points="17.8,48 17.7,48.2 4,33.4 4.2,33.3 		"/>
		<polyline class="st5" points="17.7,48.1 17.6,48.3 3.9,33.5 4.1,33.4 		"/>
		<polyline class="st5" points="17.6,48.2 17.5,48.4 3.8,33.6 4,33.5 		"/>
		<polyline class="st5" points="17.5,48.3 17.4,48.5 3.7,33.7 3.8,33.6 		"/>
		<polyline class="st5" points="17.4,48.4 17.2,48.5 3.6,33.8 3.7,33.7 		"/>
		<polyline class="st5" points="17.3,48.5 17.1,48.6 3.5,33.9 3.6,33.8 		"/>
		<polyline class="st5" points="17.2,48.6 17,48.7 3.4,34 3.5,33.9 		"/>
		<polyline class="st5" points="17.1,48.7 16.9,48.8 3.3,34.1 3.4,34 		"/>
		<polyline class="st5" points="17,48.8 16.8,48.9 3.2,34.2 3.3,34.1 		"/>
		<polyline class="st5" points="16.9,48.9 16.7,49 3.1,34.3 3.2,34.1 		"/>
		<polyline class="st5" points="16.8,49 16.6,49.1 3,34.4 3.1,34.2 		"/>
		<polyline class="st5" points="16.7,49.1 16.5,49.2 2.9,34.5 3,34.3 		"/>
		<polyline class="st5" points="16.6,49.2 16.4,49.3 2.8,34.6 2.9,34.4 		"/>
		<polyline class="st5" points="16.5,49.3 16.3,49.4 2.7,34.7 2.8,34.5 		"/>
		<polyline class="st5" points="16.4,49.4 16.2,49.5 2.6,34.8 2.7,34.6 		"/>
		<polyline class="st5" points="16.3,49.5 16.1,49.6 2.5,34.9 2.6,34.7 		"/>
		<polyline class="st5" points="16.2,49.6 16,49.7 2.3,35 2.5,34.8 		"/>
		<polyline class="st5" points="16.1,49.7 15.9,49.8 2.2,35.1 2.4,34.9 		"/>
		<polyline class="st5" points="16,49.7 15.8,49.9 2.1,35.2 2.3,35 		"/>
		<polyline class="st5" points="15.8,49.8 15.7,50 2,35.3 2.2,35.1 		"/>
		<polyline class="st5" points="15.7,49.9 15.6,50.1 1.9,35.3 2.1,35.2 		"/>
		<polyline class="st5" points="15.6,50 15.5,50.2 1.8,35.4 2,35.3 		"/>
		<polyline class="st5" points="15.5,50.1 15.4,50.3 1.7,35.5 1.9,35.4 		"/>
		<polyline class="st5" points="15.4,50.2 15.3,50.4 1.6,35.6 1.8,35.5 		"/>
		<polyline class="st5" points="15.3,50.3 15.2,50.5 1.5,35.7 1.7,35.6 		"/>
		<polyline class="st5" points="15.2,50.4 15.1,50.6 1.4,35.8 1.6,35.7 		"/>
		<polyline class="st5" points="15.1,50.5 15,50.7 1.3,35.9 1.5,35.8 		"/>
		<polyline class="st5" points="15,50.6 14.9,50.8 1.2,36 1.4,35.9 		"/>
		<polyline class="st5" points="14.9,50.7 14.8,50.9 1.1,36.1 1.3,36 		"/>
		<polyline class="st5" points="14.8,50.8 14.7,50.9 1,36.2 1.2,36.1 		"/>
		<polyline class="st5" points="14.7,50.9 14.6,51 0.9,36.3 1.1,36.2 		"/>
		<polyline class="st5" points="14.6,51 14.4,51.1 0.8,36.4 0.9,36.3 		"/>
		<polyline class="st5" points="14.5,51.1 14.3,51.2 0.7,36.5 0.8,36.4 		"/>
		<polyline class="st5" points="14.4,51.2 14.2,51.3 0.6,36.6 0.7,36.5 		"/>
		<polyline class="st5" points="14.3,51.3 14.1,51.4 0.5,36.7 0.6,36.5 		"/>
		<polyline class="st5" points="14.2,51.4 14,51.5 0.4,36.8 0.5,36.6 		"/>
		<polyline class="st5" points="14.1,51.5 13.9,51.6 0.3,36.9 0.4,36.7 		"/>
		<polyline class="st5" points="14,51.6 13.8,51.7 0.2,37 0.3,36.8 		"/>
		<polyline class="st5" points="13.9,51.7 13.7,51.8 0.1,37.1 0.2,36.9 		"/>
		<polyline class="st5" points="13.8,51.8 13.6,51.9 0,37.2 0.1,37 		"/>
		<polyline class="st5" points="13.7,51.9 13.5,52 -0.1,37.3 0,37.1 		"/>
		<polyline class="st5" points="13.6,52 13.4,52.1 -0.2,37.4 -0.1,37.2 		"/>
		<polyline class="st5" points="13.5,52.1 13.3,52.2 -0.3,37.5 -0.2,37.3 		"/>
		<polyline class="st5" points="13.4,52.1 13.2,52.3 -0.5,37.6 -0.3,37.4 		"/>
		<polyline class="st5" points="13.3,52.2 13.1,52.4 -0.6,37.7 -0.4,37.5 		"/>
		<polyline class="st5" points="13.2,52.3 13,52.5 -0.7,37.7 -0.5,37.6 		"/>
		<polyline class="st5" points="13,52.4 12.9,52.6 -0.8,37.8 -0.6,37.7 		"/>
		<polyline class="st5" points="12.9,52.5 12.8,52.7 -0.9,37.9 -0.7,37.8 		"/>
		<polyline class="st5" points="12.8,52.6 12.7,52.8 -1,38 -0.8,37.9 		"/>
		<polyline class="st5" points="12.7,52.7 12.6,52.9 -1.1,38.1 -0.9,38 		"/>
		<polyline class="st5" points="12.6,52.8 12.5,53 -1.2,38.2 -1,38.1 		"/>
		<polyline class="st5" points="12.5,52.9 12.4,53.1 -1.3,38.3 -1.1,38.2 		"/>
		<polyline class="st5" points="12.4,53 12.3,53.2 -1.4,38.4 -1.2,38.3 		"/>
		<polyline class="st5" points="12.3,53.1 12.2,53.3 -1.5,38.5 -1.3,38.4 		"/>
		<polyline class="st5" points="12.2,53.2 12.1,53.3 -1.6,38.6 -1.4,38.5 		"/>
		<polyline class="st5" points="12.1,53.3 12,53.4 -1.7,38.7 -1.5,38.6 		"/>
		<polyline class="st5" points="12,53.4 11.9,53.5 -1.8,38.8 -1.6,38.7 		"/>
		<polyline class="st5" points="11.9,53.5 11.8,53.6 -1.9,38.9 -1.7,38.8 		"/>
		<polyline class="st5" points="11.8,53.6 11.7,53.7 -2,39 -1.8,38.9 		"/>
		<polyline class="st5" points="11.7,53.7 11.5,53.8 -2.1,39.1 -2,38.9 		"/>
		<polyline class="st5" points="11.6,53.8 11.4,53.9 -2.2,39.2 -2.1,39 		"/>
		<polyline class="st5" points="11.5,53.9 11.3,54 -2.3,39.3 -2.2,39.1 		"/>
		<polyline class="st5" points="11.4,54 11.2,54.1 -2.4,39.4 -2.3,39.2 		"/>
		<polyline class="st5" points="11.3,54.1 11.1,54.2 -2.5,39.5 -2.4,39.3 		"/>
		<polyline class="st5" points="11.2,54.2 11,54.3 -2.6,39.6 -2.5,39.4 		"/>
		<polyline class="st5" points="11.1,54.3 10.9,54.4 -2.7,39.7 -2.6,39.5 		"/>
		<polyline class="st5" points="11,54.4 10.8,54.5 -2.8,39.8 -2.7,39.6 		"/>
		<polyline class="st5" points="10.9,54.5 10.7,54.6 -2.9,39.9 -2.8,39.7 		"/>
		<polyline class="st5" points="10.8,54.5 10.6,54.7 -3,40 -2.9,39.8 		"/>
		<polyline class="st5" points="10.7,54.6 10.5,54.8 -3.1,40.1 -3,39.9 		"/>
		<polyline class="st5" points="10.6,54.7 10.4,54.9 -3.2,40.1 -3.1,40 		"/>
		<polyline class="st5" points="10.5,54.8 10.3,55 -3.4,40.2 -3.2,40.1 		"/>
		<polyline class="st5" points="10.4,54.9 10.2,55.1 -3.5,40.3 -3.3,40.2 		"/>
		<polyline class="st5" points="10.3,55 10.1,55.2 -3.6,40.4 -3.4,40.3 		"/>
		<polyline class="st5" points="10.1,55.1 10,55.3 -3.7,40.5 -3.5,40.4 		"/>
		<polyline class="st5" points="10,55.2 9.9,55.4 -3.8,40.6 -3.6,40.5 		"/>
		<polyline class="st5" points="9.9,55.3 9.8,55.5 -3.9,40.7 -3.7,40.6 		"/>
		<polyline class="st5" points="9.8,55.4 9.7,55.6 -4,40.8 -3.8,40.7 		"/>
		<polyline class="st5" points="9.7,55.5 9.6,55.7 -4.1,40.9 -3.9,40.8 		"/>
		<polyline class="st5" points="9.6,55.6 9.5,55.7 -4.2,41 -4,40.9 		"/>
		<polyline class="st5" points="9.5,55.7 9.4,55.8 -4.3,41.1 -4.1,41 		"/>
		<polyline class="st5" points="9.4,55.8 9.3,55.9 -4.4,41.2 -4.2,41.1 		"/>
		<polyline class="st5" points="9.3,55.9 9.2,56 -4.5,41.3 -4.3,41.2 		"/>
		<polyline class="st5" points="9.2,56 3.5,61.3 -10.1,46.5 -4.4,41.3 		"/>
	</g>
	<rect x="11.9" y="56.5" class="st2" width="6.7" height="0.3"/>
	<path class="st6" d="M19.8,55.6C19.8,55.6,19.8,55.6,19.8,55.6l0,2.1c0,0,0,0,0,0.1c0,0,0,0,0.1,0l0.3,0V58H19v-0.2l0.3,0h0
		c0,0,0,0,0,0c0,0,0,0,0-0.1v-2.1c0,0,0,0-0.1,0l-0.3,0v-0.2h1.1v0.2L19.8,55.6C19.8,55.6,19.8,55.6,19.8,55.6z"/>
	<path class="st6" d="M22.9,55.5C22.9,55.5,22.8,55.5,22.9,55.5l-0.1,2.4h-0.3l-1.6-2.2v1.9c0,0,0,0,0,0.1c0,0,0,0,0.1,0l0.2,0v0.2
		h-0.9v-0.2l0.3,0c0,0,0.1,0,0.1,0c0,0,0-0.1,0-0.1v-2.1c0,0,0,0,0-0.1c0,0,0,0-0.1,0l-0.3,0v-0.2h0.8v0.1l1.4,1.9v-1.8
		c0,0,0-0.1,0-0.1c0,0,0,0-0.1,0l-0.2,0v-0.2h0.9v0.2L22.9,55.5L22.9,55.5C22.9,55.5,22.9,55.5,22.9,55.5z"/>
	<path class="st6" d="M24.8,55.5L24.8,55.5c-0.1,0-0.1,0-0.2-0.1h-0.2c-0.2,0-0.4,0.1-0.5,0.3c0,0,0,0.1,0,0.1V56c0,0,0,0.1,0,0.1
		c0,0,0,0,0.1,0.1c0,0,0,0,0.1,0.1c0,0,0.1,0.1,0.2,0.1c0,0,0.1,0.1,0.2,0.1c0.1,0.1,0.3,0.1,0.4,0.2c0,0,0.1,0.1,0.1,0.1
		c0,0,0.1,0.1,0.1,0.1c0.1,0.1,0.1,0.1,0.1,0.2c0.1,0.1,0.1,0.2,0.1,0.3h0c0,0.1,0,0.2-0.1,0.3c-0.1,0.2-0.3,0.3-0.4,0.4
		c-0.1,0.1-0.3,0.1-0.4,0.1c-0.1,0-0.2,0-0.3,0H24c0,0-0.1,0-0.1,0c0,0-0.1,0-0.1,0c0,0-0.1,0-0.1,0c0,0-0.1,0-0.1,0
		c0,0-0.1,0-0.1,0v-0.7h0.3l0,0.4c0,0,0,0,0,0c0,0,0,0,0,0c0,0,0,0,0,0l0.1,0c0,0,0,0,0.1,0l0.1,0c0.1,0,0.2,0,0.3,0
		c0.1,0,0.1,0,0.2,0c0.1,0,0.2-0.1,0.3-0.1c0,0,0-0.1,0.1-0.1c0,0,0-0.1,0-0.2c0-0.1,0-0.2-0.1-0.2c0,0,0-0.1-0.1-0.1
		c0,0-0.1,0-0.1-0.1c-0.1-0.1-0.2-0.1-0.2-0.1c-0.1,0-0.1,0-0.1-0.1c0,0-0.1,0-0.1,0c0,0-0.1,0-0.1-0.1c0,0-0.1,0-0.2-0.1
		c-0.1-0.1-0.2-0.1-0.2-0.1c-0.1-0.1-0.2-0.2-0.2-0.4c0-0.1,0-0.2,0.1-0.3c0-0.1,0.1-0.2,0.2-0.2c0.1,0,0.2-0.1,0.3-0.2
		c0.1,0,0.2,0,0.3,0h0.2c0,0,0.1,0,0.1,0l0.2,0c0.1,0,0.2,0,0.2,0.1c0.1,0,0.1,0,0.2,0V56H25l0-0.4C24.9,55.6,24.9,55.6,24.8,55.5
		C24.9,55.6,24.9,55.6,24.8,55.5L24.8,55.5L24.8,55.5C24.8,55.6,24.8,55.5,24.8,55.5z"/>
	<path class="st6" d="M27.6,55.6C27.6,55.6,27.6,55.5,27.6,55.6C27.5,55.5,27.5,55.5,27.6,55.6C27.5,55.5,27.5,55.5,27.6,55.6
		l-0.7-0.1v2.2c0,0,0,0,0,0c0,0,0,0,0,0c0,0,0,0,0.1,0l0.3,0v0.2h-1.2v-0.2l0.3,0c0,0,0.1,0,0.1,0c0,0,0,0,0-0.1v-2.2h-0.6
		c0,0,0,0,0,0c0,0,0,0,0,0c0,0,0,0,0,0.1l-0.1,0.4h-0.3v-0.6h2.4v0.6h-0.3L27.6,55.6z"/>
	<path class="st6" d="M29,55.6C28.9,55.6,28.9,55.6,29,55.6l0,2.1c0,0,0,0,0,0.1c0,0,0,0,0.1,0l0.3,0v0.2h-1.1v-0.2l0.3,0h0
		c0,0,0,0,0,0c0,0,0,0,0-0.1v-2.1c0,0,0,0-0.1,0l-0.3,0v-0.2h1.1v0.2L29,55.6C29,55.5,29,55.5,29,55.6z"/>
	<path class="st6" d="M31.5,55.6C31.5,55.6,31.5,55.5,31.5,55.6C31.5,55.5,31.5,55.5,31.5,55.6C31.5,55.5,31.5,55.5,31.5,55.6
		l-0.7-0.1v2.2c0,0,0,0,0,0c0,0,0,0,0,0c0,0,0,0,0.1,0l0.3,0v0.2h-1.2v-0.2l0.3,0c0,0,0.1,0,0.1,0c0,0,0,0,0-0.1v-2.2h-0.6
		c0,0,0,0,0,0c0,0,0,0,0,0c0,0,0,0,0,0.1l-0.1,0.4h-0.3v-0.6h2.4v0.6h-0.3L31.5,55.6z"/>
	<path class="st6" d="M34.7,55.5L34.7,55.5C34.6,55.5,34.6,55.5,34.7,55.5L34.6,57c0,0.3-0.1,0.6-0.3,0.7c-0.2,0.2-0.5,0.2-0.8,0.2
		c-0.3,0-0.6-0.1-0.8-0.2c-0.2-0.2-0.2-0.4-0.2-0.7v-1.5c0,0,0-0.1,0-0.1c0,0,0,0-0.1,0l-0.2,0v-0.2h1.1v0.2l-0.3,0c0,0,0,0-0.1,0
		c0,0,0,0,0,0.1v1.5c0,0.1,0,0.2,0,0.2c0.1,0.2,0.3,0.4,0.7,0.4c0.1,0,0.3,0,0.4-0.1c0.1,0,0.2-0.1,0.2-0.2c0.1-0.2,0.1-0.3,0.1-0.4
		c0-0.1,0-0.1,0-0.2v-1.4c0,0,0-0.1,0-0.1c0,0,0,0-0.1,0l-0.2,0v-0.2h0.9v0.2L34.7,55.5z"/>
	<path class="st6" d="M37.1,55.6C37.1,55.6,37.1,55.5,37.1,55.6C37.1,55.5,37.1,55.5,37.1,55.6C37.1,55.5,37.1,55.5,37.1,55.6
		l-0.7-0.1v2.2c0,0,0,0,0,0c0,0,0,0,0,0c0,0,0,0,0.1,0l0.3,0v0.2h-1.2v-0.2l0.3,0c0,0,0.1,0,0.1,0c0,0,0,0,0-0.1v-2.2h-0.6
		c0,0,0,0,0,0c0,0,0,0,0,0c0,0,0,0,0,0.1l-0.1,0.4h-0.3v-0.6h2.4v0.6h-0.3L37.1,55.6z"/>
	<path class="st6" d="M39.2,56.5C39.2,56.4,39.2,56.4,39.2,56.5l0.1-0.3h0.2V57h-0.2l-0.1-0.3c0,0,0,0,0,0c0,0,0,0-0.1,0h-0.6v1.1
		h1.1c0,0,0,0,0,0c0,0,0,0,0,0c0,0,0,0,0,0l0.1-0.4h0.2v0.6h-2.2v-0.2l0.2,0h0c0,0,0,0,0,0c0,0,0,0,0-0.1v-2.1c0,0,0,0,0,0
		c0,0,0,0,0,0c0,0,0,0,0,0l-0.2,0v-0.2h2v0.6h-0.2l-0.1-0.3c0,0,0,0,0-0.1c0,0,0,0,0,0h-0.9v1L39.2,56.5
		C39.2,56.5,39.2,56.5,39.2,56.5z"/>
	<path class="st6" d="M47,56.6c0,0.2,0,0.3-0.1,0.5l-0.1,0.2c-0.1,0.1-0.2,0.3-0.4,0.4c-0.1,0-0.2,0.1-0.3,0.2
		C46,58,45.8,58,45.6,58c-0.4,0-0.8-0.1-1-0.4c-0.1-0.1-0.1-0.1-0.2-0.2c0-0.1-0.1-0.2-0.1-0.2c-0.1-0.2-0.1-0.3-0.1-0.5
		c0-0.4,0.1-0.7,0.4-1c0.1-0.1,0.3-0.2,0.4-0.3c0.2-0.1,0.4-0.1,0.6-0.1c0.2,0,0.4,0,0.5,0.1c0.2,0.1,0.3,0.2,0.5,0.3
		c0.1,0.1,0.2,0.3,0.3,0.4C47,56.3,47,56.5,47,56.6z M46.5,56.6c0-0.4-0.1-0.6-0.2-0.8c0-0.1-0.1-0.1-0.1-0.1c0,0-0.1-0.1-0.2-0.1
		c-0.1-0.1-0.2-0.1-0.4-0.1c-0.2,0-0.3,0-0.4,0.1c-0.3,0.1-0.4,0.4-0.5,0.8c0,0.1,0,0.1,0,0.2c0,0.3,0.1,0.6,0.2,0.8
		c0.1,0.1,0.2,0.2,0.3,0.3c0.1,0.1,0.2,0.1,0.3,0.1c0.2,0,0.3,0,0.4-0.1c0.1-0.1,0.2-0.2,0.3-0.3C46.5,57.2,46.5,56.9,46.5,56.6
		L46.5,56.6z"/>
	<path class="st6" d="M42.1,57.7C42.2,57.7,42.2,57.7,42.1,57.7l0.1-2.1c0,0,0-0.1,0-0.1c0,0,0,0-0.1,0l-0.2,0v-0.2H44v0.6h-0.3
		l-0.1-0.4c0,0,0,0,0-0.1c0,0,0,0-0.1,0h-0.9v1h0.6c0,0,0,0,0,0c0,0,0,0,0,0l0.1-0.3h0.2v0.9h-0.2l-0.1-0.3c0,0,0,0,0-0.1
		c0,0,0,0,0,0h-0.6v1c0,0,0,0,0,0c0,0,0,0,0.1,0l0.3,0v0.2h-1.1v-0.2L42.1,57.7z"/>
	<path class="st6" d="M53.1,55.5L53.1,55.5c-0.1,0-0.1,0-0.2-0.1h-0.2c-0.2,0-0.4,0.1-0.5,0.3c0,0,0,0.1,0,0.1V56c0,0,0,0.1,0,0.1
		c0,0,0,0,0.1,0.1c0,0,0,0,0.1,0.1c0,0,0.1,0.1,0.2,0.1c0,0,0.1,0.1,0.2,0.1c0.2,0.1,0.3,0.1,0.4,0.2c0,0,0.1,0.1,0.1,0.1
		c0,0,0.1,0.1,0.1,0.1c0.1,0.1,0.1,0.1,0.1,0.2c0.1,0.1,0.1,0.2,0.1,0.3h0c0,0.1,0,0.2-0.1,0.3c-0.1,0.2-0.3,0.3-0.4,0.4
		C53,57.9,52.9,58,52.8,58c-0.1,0-0.2,0-0.3,0h-0.2c0,0-0.1,0-0.1,0c0,0-0.1,0-0.1,0c0,0-0.1,0-0.1,0c0,0-0.1,0-0.1,0
		c0,0-0.1,0-0.1,0v-0.7H52l0,0.4c0,0,0,0,0,0c0,0,0,0,0,0c0,0,0,0,0,0l0.1,0c0,0,0,0,0.1,0l0.1,0c0.1,0,0.2,0,0.3,0
		c0.1,0,0.1,0,0.2,0c0.1,0,0.2-0.1,0.3-0.1c0,0,0-0.1,0.1-0.1c0,0,0-0.1,0-0.2c0-0.1,0-0.2-0.1-0.2c0,0,0-0.1-0.1-0.1
		c0,0-0.1,0-0.1-0.1c-0.1-0.1-0.2-0.1-0.2-0.1c-0.1,0-0.1,0-0.1-0.1c0,0-0.1,0-0.1,0c0,0-0.1,0-0.1-0.1c0,0-0.1,0-0.2-0.1
		c-0.1-0.1-0.2-0.1-0.2-0.1c-0.1-0.1-0.2-0.2-0.2-0.4c0-0.1,0-0.2,0.1-0.3c0-0.1,0.1-0.2,0.2-0.2c0.1,0,0.2-0.1,0.3-0.2
		c0.1,0,0.2,0,0.3,0h0.2c0,0,0.1,0,0.1,0l0.2,0c0.1,0,0.2,0,0.2,0.1c0.1,0,0.1,0,0.2,0V56h-0.3l0-0.4C53.2,55.6,53.2,55.6,53.1,55.5
		C53.2,55.6,53.2,55.6,53.1,55.5L53.1,55.5L53.1,55.5C53.1,55.6,53.1,55.5,53.1,55.5z"/>
	<path class="st6" d="M55.5,57.8l0.2,0c0,0,0,0,0,0v-0.1L55.5,57h-1l-0.3,0.7v0c0,0,0,0,0,0v0c0,0,0,0,0,0h0l0.2,0V58h-0.8v-0.2
		l0.2,0l1-2.5h0.3l1,2.4c0,0,0,0,0,0c0,0,0,0,0,0c0,0,0,0,0,0c0,0,0,0,0,0l0.2,0V58h-1V57.8z M54.6,56.8h0.8l-0.4-1L54.6,56.8z"/>
	<path class="st6" d="M57,57.7C57,57.7,57.1,57.7,57,57.7l0.1-2.1c0,0,0-0.1,0-0.1c0,0,0,0-0.1,0l-0.3,0v-0.2h2.1v0.6h-0.3l-0.1-0.4
		c0,0,0,0,0-0.1c0,0,0,0-0.1,0h-0.9v1h0.6c0,0,0,0,0,0c0,0,0,0,0,0l0.1-0.3h0.2v0.9h-0.2l-0.1-0.3c0,0,0,0,0-0.1c0,0,0,0,0,0h-0.6v1
		c0,0,0,0,0,0c0,0,0,0,0.1,0l0.3,0v0.2h-1.1v-0.2L57,57.7z"/>
	<path class="st6" d="M60.4,56.5C60.5,56.4,60.5,56.4,60.4,56.5l0.1-0.3h0.2V57h-0.2l-0.1-0.3c0,0,0,0,0,0c0,0,0,0-0.1,0h-0.6v1.1
		h1.1c0,0,0,0,0,0c0,0,0,0,0,0c0,0,0,0,0,0l0.1-0.4h0.2v0.6H59v-0.2l0.2,0h0c0,0,0,0,0,0c0,0,0,0,0-0.1v-2.1c0,0,0,0,0,0
		c0,0,0,0,0,0c0,0,0,0,0,0l-0.2,0v-0.2h2.1v0.6h-0.2l-0.1-0.3c0,0,0,0,0-0.1c0,0,0,0,0,0h-0.9v1L60.4,56.5
		C60.4,56.5,60.4,56.5,60.4,56.5z"/>
	<path class="st6" d="M63.5,55.6C63.5,55.6,63.5,55.5,63.5,55.6C63.4,55.5,63.4,55.5,63.5,55.6C63.4,55.5,63.4,55.5,63.5,55.6
		l-0.7-0.1v2.2c0,0,0,0,0,0c0,0,0,0,0,0c0,0,0,0,0.1,0l0.3,0v0.2H62v-0.2l0.3,0c0,0,0.1,0,0.1,0c0,0,0,0,0-0.1v-2.2h-0.6
		c0,0,0,0,0,0c0,0,0,0,0,0c0,0,0,0,0,0.1l-0.1,0.4h-0.3v-0.6h2.4v0.6h-0.3L63.5,55.6z"/>
	<path class="st6" d="M64.8,55.5C64.7,55.5,64.7,55.5,64.8,55.5L64.8,55.5C64.7,55.6,64.7,55.6,64.8,55.5l0.5,1.1l0.7-1c0,0,0,0,0,0
		c0,0,0,0-0.1,0l-0.2,0v-0.2h0.8v0.2l-0.2,0l-0.9,1.3v0.9c0,0,0,0,0.1,0l0.3,0v0.2h-1.1v-0.2l0.2,0c0.1,0,0.1,0,0.1,0v-0.8l-0.8-1.3
		L64,55.5v-0.2h1v0.2L64.8,55.5z"/>
	<path class="st6" d="M70.9,55.7c0,0.1,0.1,0.2,0.1,0.4c0,0.1,0,0.3-0.1,0.4c0,0.1-0.1,0.2-0.1,0.2c0,0-0.1,0.1-0.1,0.1
		c-0.2,0.1-0.5,0.2-0.8,0.2h-0.1c0,0,0,0-0.1,0c0,0-0.1,0-0.1,0c0,0,0,0,0,0v0.8c0,0,0,0,0.1,0l0.3,0v0.2h-1.1v-0.2l0.2,0
		c0,0,0.1,0,0.1,0c0,0,0,0,0,0c0,0,0,0,0,0v-2.1c0-0.1,0-0.1-0.1-0.1l-0.3,0v-0.2h1c0.2,0,0.3,0,0.5,0c0.1,0,0.2,0.1,0.3,0.1
		C70.7,55.6,70.8,55.6,70.9,55.7z M70.4,56.5c0,0,0-0.1,0.1-0.1c0-0.1,0-0.1,0-0.2c0-0.1,0-0.2,0-0.3c-0.1-0.1-0.1-0.2-0.1-0.2
		c-0.1,0-0.1-0.1-0.2-0.1c-0.1,0-0.2,0-0.3,0h-0.2v1.2h0.1c0,0,0,0,0.1,0h0.1C70,56.8,70.2,56.7,70.4,56.5
		C70.3,56.6,70.4,56.5,70.4,56.5z"/>
	<path class="st6" d="M73.8,57.9C73.8,57.9,73.8,57.9,73.8,57.9C73.8,57.9,73.7,57.9,73.8,57.9c-0.1,0-0.2,0-0.2,0.1h-0.1
		c-0.2,0-0.4-0.1-0.5-0.2c-0.1,0-0.1-0.1-0.1-0.2c0,0,0-0.1,0-0.1c0,0,0-0.1,0-0.1c-0.1-0.2-0.1-0.4-0.2-0.4c0,0-0.1-0.1-0.2-0.1
		c-0.1,0-0.2-0.1-0.3-0.1H72c0,0,0,0,0,0h0v0.9c0,0,0,0,0,0.1c0,0,0,0,0.1,0l0.2,0v0.2h-1.1v-0.2l0.2,0c0,0,0.1,0,0.1,0
		c0,0,0,0,0-0.1v-2.1c0,0,0,0,0,0c0,0-0.1,0-0.1,0l-0.2,0v-0.2h1.1c0.3,0,0.6,0.1,0.8,0.2c0.1,0.1,0.2,0.1,0.2,0.2
		c0,0.1,0.1,0.2,0.1,0.3c0,0.2-0.1,0.4-0.2,0.5c-0.1,0-0.1,0.1-0.2,0.1c-0.1,0-0.1,0.1-0.3,0.1c0.1,0,0.1,0,0.2,0.1
		c0,0,0.1,0,0.1,0.1c0,0,0,0.1,0.1,0.1c0,0,0.1,0.1,0.1,0.1c0,0,0,0.1,0,0.1c0,0,0,0.1,0,0.1c0,0,0,0.1,0,0.1c0,0,0,0.1,0,0.1
		c0,0,0,0.1,0,0.1c0,0,0,0.1,0,0.1c0,0,0.1,0.1,0.1,0.2c0.1,0,0.1,0.1,0.2,0.1c0.1,0,0.2,0,0.3,0V57.9z M72.2,56.6
		c0.1,0,0.2,0,0.3,0c0.2,0,0.3-0.1,0.3-0.2c0,0,0-0.1,0.1-0.1c0.1-0.1,0.1-0.2,0-0.3c0,0,0-0.1-0.1-0.1c0-0.1-0.1-0.1-0.1-0.2
		c0,0-0.1,0-0.1-0.1c0,0-0.1,0-0.1-0.1c-0.1,0-0.2,0-0.3,0H72v1.1H72.2z"/>
	<path class="st6" d="M49.6,57.9C49.6,57.9,49.6,57.9,49.6,57.9C49.6,57.9,49.5,57.9,49.6,57.9c-0.1,0-0.2,0-0.2,0.1h-0.1
		c-0.2,0-0.4-0.1-0.5-0.2c-0.1,0-0.1-0.1-0.1-0.2c0,0,0-0.1,0-0.1c0,0,0-0.1,0-0.1c-0.1-0.2-0.1-0.4-0.2-0.4c0,0-0.1-0.1-0.2-0.1
		c-0.1,0-0.2-0.1-0.3-0.1h-0.1c0,0,0,0,0,0h0v0.9c0,0,0,0,0,0.1c0,0,0,0,0.1,0l0.2,0v0.2H47v-0.2l0.2,0c0,0,0.1,0,0.1,0
		c0,0,0,0,0-0.1v-2.1c0,0,0,0,0,0c0,0-0.1,0-0.1,0l-0.2,0v-0.2h1.1c0.3,0,0.6,0.1,0.8,0.2c0.1,0.1,0.2,0.1,0.2,0.2
		c0,0.1,0.1,0.2,0.1,0.3c0,0.2-0.1,0.4-0.2,0.5c-0.1,0-0.1,0.1-0.2,0.1c-0.1,0-0.1,0.1-0.3,0.1c0.1,0,0.1,0,0.2,0.1
		c0,0,0.1,0,0.1,0.1c0,0,0,0.1,0.1,0.1c0,0,0.1,0.1,0.1,0.1c0,0,0,0.1,0,0.1c0,0,0,0.1,0,0.1c0,0,0,0.1,0,0.1c0,0,0,0.1,0,0.1
		c0,0,0,0.1,0,0.1c0,0,0,0.1,0,0.1c0,0,0.1,0.1,0.1,0.2c0.1,0,0.1,0.1,0.2,0.1c0.1,0,0.2,0,0.3,0V57.9z M48,56.6c0.1,0,0.2,0,0.3,0
		c0.2,0,0.3-0.1,0.3-0.2c0,0,0-0.1,0.1-0.1c0.1-0.1,0.1-0.2,0-0.3c0,0,0-0.1-0.1-0.1c0-0.1-0.1-0.1-0.1-0.2c0,0-0.1,0-0.1-0.1
		c0,0-0.1,0-0.1-0.1c-0.1,0-0.2,0-0.3,0h-0.2v1.1H48z"/>
	<path class="st6" d="M76.8,56.6c0,0.2,0,0.3-0.1,0.5l-0.1,0.2c-0.1,0.1-0.2,0.3-0.4,0.4c-0.1,0-0.2,0.1-0.3,0.2
		C75.9,58,75.7,58,75.5,58c-0.4,0-0.8-0.1-1-0.4c-0.1-0.1-0.1-0.1-0.2-0.2c0-0.1-0.1-0.2-0.1-0.2c-0.1-0.2-0.1-0.3-0.1-0.5
		c0-0.4,0.1-0.7,0.4-1c0.1-0.1,0.3-0.2,0.4-0.3c0.2-0.1,0.4-0.1,0.6-0.1c0.2,0,0.4,0,0.5,0.1c0.2,0.1,0.3,0.2,0.5,0.3
		c0.1,0.1,0.2,0.3,0.3,0.4C76.8,56.3,76.8,56.5,76.8,56.6z M76.3,56.6c0-0.4-0.1-0.6-0.2-0.8c0-0.1-0.1-0.1-0.1-0.1
		c0,0-0.1-0.1-0.2-0.1c-0.1-0.1-0.2-0.1-0.4-0.1c-0.2,0-0.3,0-0.4,0.1c-0.3,0.1-0.4,0.4-0.5,0.8c0,0.1,0,0.1,0,0.2
		c0,0.3,0.1,0.6,0.2,0.8c0.1,0.1,0.2,0.2,0.3,0.3c0.1,0.1,0.2,0.1,0.3,0.1c0.2,0,0.3,0,0.5-0.1c0.1-0.1,0.2-0.2,0.3-0.3
		C76.3,57.2,76.4,56.9,76.3,56.6L76.3,56.6z"/>
	<path class="st6" d="M77.3,57.7C77.4,57.7,77.4,57.7,77.3,57.7l0.1-2.1c0,0,0-0.1,0-0.1c0,0,0,0-0.1,0l-0.3,0v-0.2h2.1v0.6h-0.2
		l-0.1-0.4c0,0,0,0,0-0.1c0,0,0,0-0.1,0h-0.9v1h0.6c0,0,0,0,0,0c0,0,0,0,0,0l0.1-0.3h0.2v0.9h-0.2l-0.1-0.3c0,0,0,0,0-0.1
		c0,0,0,0,0,0h-0.6v1c0,0,0,0,0,0c0,0,0,0,0.1,0l0.3,0v0.2h-1.1v-0.2L77.3,57.7z"/>
	<path class="st6" d="M80.8,56.5C80.8,56.4,80.8,56.4,80.8,56.5l0.1-0.3H81V57h-0.2l-0.1-0.3c0,0,0,0,0,0c0,0,0,0-0.1,0h-0.6v1.1
		h1.1c0,0,0,0,0,0c0,0,0,0,0,0c0,0,0,0,0,0l0.1-0.4h0.2v0.6h-2.2v-0.2l0.2,0h0c0,0,0,0,0,0c0,0,0,0,0-0.1v-2.1c0,0,0,0,0,0
		c0,0,0,0,0,0c0,0,0,0,0,0l-0.2,0v-0.2h2.1v0.6h-0.2l-0.1-0.3c0,0,0,0,0-0.1c0,0,0,0,0,0h-0.9v1L80.8,56.5
		C80.7,56.5,80.8,56.5,80.8,56.5z"/>
	<path class="st6" d="M83.2,55.5L83.2,55.5c-0.1,0-0.1,0-0.2-0.1h-0.2c-0.2,0-0.4,0.1-0.5,0.3c0,0,0,0.1,0,0.1V56c0,0,0,0.1,0,0.1
		c0,0,0,0,0.1,0.1c0,0,0,0,0.1,0.1c0,0,0.1,0.1,0.2,0.1c0,0,0.1,0.1,0.2,0.1c0.1,0.1,0.3,0.1,0.4,0.2c0,0,0.1,0.1,0.1,0.1
		c0,0,0.1,0.1,0.1,0.1c0.1,0.1,0.1,0.1,0.1,0.2c0.1,0.1,0.1,0.2,0.1,0.3h0c0,0.1,0,0.2-0.1,0.3c-0.1,0.2-0.3,0.3-0.4,0.4
		C83.1,57.9,83,58,82.9,58c-0.1,0-0.2,0-0.3,0h-0.2c0,0-0.1,0-0.1,0c0,0-0.1,0-0.1,0c0,0-0.1,0-0.1,0c0,0-0.1,0-0.1,0
		c0,0-0.1,0-0.1,0v-0.7h0.3l0,0.4c0,0,0,0,0,0c0,0,0,0,0,0c0,0,0,0,0,0l0.1,0c0,0,0,0,0.1,0l0.1,0c0.1,0,0.2,0,0.3,0
		c0.1,0,0.1,0,0.2,0c0.1,0,0.2-0.1,0.3-0.1c0,0,0-0.1,0.1-0.1c0,0,0-0.1,0-0.2c0-0.1,0-0.2-0.1-0.2c0,0,0-0.1-0.1-0.1
		c0,0-0.1,0-0.1-0.1c-0.1-0.1-0.2-0.1-0.2-0.1c-0.1,0-0.1,0-0.1-0.1c0,0-0.1,0-0.1,0c0,0-0.1,0-0.1-0.1c0,0-0.1,0-0.2-0.1
		c-0.1-0.1-0.2-0.1-0.2-0.1c-0.1-0.1-0.2-0.2-0.2-0.4c0-0.1,0-0.2,0.1-0.3c0-0.1,0.1-0.2,0.2-0.2c0.1,0,0.2-0.1,0.3-0.2
		c0.1,0,0.2,0,0.3,0h0.2c0,0,0.1,0,0.1,0l0.2,0c0.1,0,0.2,0,0.2,0.1c0.1,0,0.1,0,0.2,0V56h-0.3l0-0.4C83.2,55.6,83.2,55.6,83.2,55.5
		C83.2,55.6,83.2,55.6,83.2,55.5L83.2,55.5L83.2,55.5C83.2,55.6,83.2,55.5,83.2,55.5z"/>
	<path class="st6" d="M85.3,55.5L85.3,55.5c-0.1,0-0.1,0-0.2-0.1H85c-0.2,0-0.4,0.1-0.5,0.3c0,0,0,0.1,0,0.1V56c0,0,0,0.1,0,0.1
		c0,0,0,0,0.1,0.1c0,0,0,0,0.1,0.1c0,0,0.1,0.1,0.2,0.1c0,0,0.1,0.1,0.2,0.1c0.2,0.1,0.3,0.1,0.4,0.2c0,0,0.1,0.1,0.1,0.1
		c0,0,0.1,0.1,0.1,0.1c0.1,0.1,0.1,0.1,0.1,0.2c0.1,0.1,0.1,0.2,0.1,0.3h0c0,0.1,0,0.2-0.1,0.3c-0.1,0.2-0.3,0.3-0.4,0.4
		C85.2,57.9,85.1,58,85,58c-0.1,0-0.2,0-0.3,0h-0.2c0,0-0.1,0-0.1,0c0,0-0.1,0-0.1,0c0,0-0.1,0-0.1,0c0,0-0.1,0-0.1,0
		c0,0-0.1,0-0.1,0v-0.7h0.3l0,0.4c0,0,0,0,0,0c0,0,0,0,0,0c0,0,0,0,0,0l0.1,0c0,0,0,0,0.1,0l0.1,0c0.1,0,0.2,0,0.3,0
		c0.1,0,0.1,0,0.2,0c0.1,0,0.2-0.1,0.3-0.1c0,0,0-0.1,0.1-0.1c0,0,0-0.1,0-0.2c0-0.1,0-0.2-0.1-0.2c0,0,0-0.1-0.1-0.1
		c0,0-0.1,0-0.1-0.1c-0.1-0.1-0.2-0.1-0.2-0.1c-0.1,0-0.1,0-0.1-0.1c0,0-0.1,0-0.1,0c0,0-0.1,0-0.1-0.1c0,0-0.1,0-0.2-0.1
		c-0.1-0.1-0.2-0.1-0.2-0.1C84,56.4,84,56.2,84,56c0-0.1,0-0.2,0.1-0.3c0-0.1,0.1-0.2,0.2-0.2c0.1,0,0.2-0.1,0.3-0.2
		c0.1,0,0.2,0,0.3,0h0.2c0,0,0.1,0,0.1,0l0.2,0c0.1,0,0.2,0,0.2,0.1c0.1,0,0.1,0,0.2,0V56h-0.3l0-0.4C85.4,55.6,85.3,55.6,85.3,55.5
		C85.3,55.6,85.3,55.6,85.3,55.5L85.3,55.5L85.3,55.5C85.3,55.6,85.3,55.5,85.3,55.5z"/>
	<path class="st6" d="M86.8,55.6C86.8,55.6,86.8,55.6,86.8,55.6l0,2.1c0,0,0,0,0,0.1c0,0,0,0,0.1,0l0.3,0v0.2H86v-0.2l0.3,0h0
		c0,0,0,0,0,0c0,0,0,0,0-0.1v-2.1c0,0,0,0-0.1,0l-0.3,0v-0.2h1.1v0.2L86.8,55.6C86.8,55.5,86.8,55.5,86.8,55.6z"/>
	<path class="st6" d="M90.2,56.6c0,0.2,0,0.3-0.1,0.5l-0.1,0.2c-0.1,0.1-0.2,0.3-0.4,0.4c-0.1,0-0.2,0.1-0.3,0.2
		C89.2,58,89,58,88.8,58c-0.4,0-0.8-0.1-1-0.4c-0.1-0.1-0.1-0.1-0.2-0.2c0-0.1-0.1-0.2-0.1-0.2c-0.1-0.2-0.1-0.3-0.1-0.5
		c0-0.4,0.1-0.7,0.4-1c0.1-0.1,0.3-0.2,0.4-0.3c0.2-0.1,0.4-0.1,0.6-0.1c0.2,0,0.4,0,0.5,0.1c0.2,0.1,0.3,0.2,0.5,0.3
		c0.1,0.1,0.2,0.3,0.3,0.4C90.1,56.3,90.2,56.5,90.2,56.6z M89.7,56.6c0-0.4-0.1-0.6-0.2-0.8c0-0.1-0.1-0.1-0.1-0.1
		c0,0-0.1-0.1-0.2-0.1c-0.1-0.1-0.2-0.1-0.4-0.1c-0.2,0-0.3,0-0.4,0.1c-0.3,0.1-0.4,0.4-0.5,0.8c0,0.1,0,0.1,0,0.2
		c0,0.3,0.1,0.6,0.2,0.8c0.1,0.1,0.2,0.2,0.3,0.3c0.1,0.1,0.2,0.1,0.3,0.1c0.2,0,0.3,0,0.4-0.1c0.1-0.1,0.2-0.2,0.3-0.3
		C89.6,57.2,89.7,56.9,89.7,56.6L89.7,56.6z"/>
	<path class="st6" d="M92.9,55.5C92.9,55.5,92.9,55.5,92.9,55.5l-0.1,2.4h-0.3L91,55.8v1.9c0,0,0,0,0,0.1c0,0,0,0,0.1,0l0.2,0v0.2
		h-0.9v-0.2l0.3,0c0,0,0.1,0,0.1,0c0,0,0-0.1,0-0.1v-2.1c0,0,0,0,0-0.1c0,0,0,0-0.1,0l-0.3,0v-0.2h0.8v0.1l1.4,1.9v-1.8
		c0,0,0-0.1,0-0.1c0,0,0,0-0.1,0l-0.2,0v-0.2h0.9v0.2L92.9,55.5L92.9,55.5C92.9,55.5,92.9,55.5,92.9,55.5z"/>
	<path class="st6" d="M95.1,57.8l0.2,0c0,0,0,0,0,0v-0.1L95.1,57h-1l-0.3,0.7v0c0,0,0,0,0,0v0c0,0,0,0,0,0h0l0.2,0V58h-0.8v-0.2
		l0.2,0l1-2.5h0.3l1,2.4c0,0,0,0,0,0c0,0,0,0,0,0c0,0,0,0,0,0c0,0,0,0,0,0l0.2,0V58h-1V57.8z M94.2,56.8h0.8l-0.4-1L94.2,56.8z"/>
	<path class="st6" d="M96.7,55.6C96.7,55.6,96.6,55.5,96.7,55.6C96.6,55.5,96.6,55.5,96.7,55.6l-0.3-0.1v-0.2h1.1v0.2l-0.2,0
		c0,0,0,0-0.1,0c0,0,0,0,0,0v2.1H98c0,0,0,0,0,0c0,0,0,0,0,0l0.1-0.5h0.3v0.7h-2.1v-0.2l0.3,0c0,0,0.1,0,0.1,0c0,0,0,0,0,0
		c0,0,0,0,0,0V55.6z"/>
	<path class="st6" d="M100.1,55.5L100.1,55.5c-0.1,0-0.1,0-0.2-0.1h-0.2c-0.2,0-0.4,0.1-0.5,0.3c0,0,0,0.1,0,0.1V56c0,0,0,0.1,0,0.1
		c0,0,0,0,0.1,0.1c0,0,0,0,0.1,0.1c0,0,0.1,0.1,0.2,0.1c0,0,0.1,0.1,0.2,0.1c0.2,0.1,0.3,0.1,0.4,0.2c0,0,0.1,0.1,0.1,0.1
		c0,0,0.1,0.1,0.1,0.1c0.1,0.1,0.1,0.1,0.1,0.2c0.1,0.1,0.1,0.2,0.1,0.3h0c0,0.1,0,0.2-0.1,0.3c-0.1,0.2-0.3,0.3-0.4,0.4
		c-0.1,0.1-0.3,0.1-0.4,0.1c-0.1,0-0.2,0-0.3,0h-0.2c0,0-0.1,0-0.1,0c0,0-0.1,0-0.1,0c0,0-0.1,0-0.1,0c0,0-0.1,0-0.1,0
		c0,0-0.1,0-0.1,0v-0.7H99l0,0.4c0,0,0,0,0,0c0,0,0,0,0,0c0,0,0,0,0,0l0.1,0c0,0,0,0,0.1,0l0.1,0c0.1,0,0.2,0,0.3,0
		c0.1,0,0.1,0,0.2,0c0.1,0,0.2-0.1,0.3-0.1c0,0,0-0.1,0.1-0.1c0,0,0-0.1,0-0.2c0-0.1,0-0.2-0.1-0.2c0,0,0-0.1-0.1-0.1
		c0,0-0.1,0-0.1-0.1c-0.1-0.1-0.2-0.1-0.2-0.1c-0.1,0-0.1,0-0.1-0.1c0,0-0.1,0-0.1,0c0,0-0.1,0-0.1-0.1c0,0-0.1,0-0.2-0.1
		c-0.1-0.1-0.2-0.1-0.2-0.1c-0.1-0.1-0.2-0.2-0.2-0.4c0-0.1,0-0.2,0.1-0.3c0-0.1,0.1-0.2,0.2-0.2c0.1,0,0.2-0.1,0.3-0.2
		c0.1,0,0.2,0,0.3,0h0.2c0,0,0.1,0,0.1,0l0.2,0c0.1,0,0.2,0,0.2,0.1c0.1,0,0.1,0,0.2,0V56h-0.3l0-0.4
		C100.1,55.6,100.1,55.6,100.1,55.5C100.1,55.6,100.1,55.6,100.1,55.5L100.1,55.5L100.1,55.5C100.1,55.6,100.1,55.5,100.1,55.5z"/>
</g>
</svg>
